<?xml version="1.0" encoding="UTF-8"?>
<svg xmlns="http://www.w3.org/2000/svg" version="1.1" xmlns:xlink="http://www.w3.org/1999/xlink" viewBox="0 0 226.8 226.8">
  <defs>
    <style>
      .cls-1 {
        display: none;
      }

      .cls-2 {
        fill: none;
        stroke: red;
        stroke-miterlimit: 10;
        stroke-width: .2px;
      }
    </style>
  </defs>
  <g id="Layer_1" data-name="Layer 1" class="cls-1">
    <image width="883" height="419" transform="translate(30.2 76.9) scale(.2)" xlink:href="pipe.png"/>
  </g>
  <g id="Layer_2" data-name="Layer 2">
    <path class="cls-2" d="M153.3,142.2c-1.3.4-2.6.7-4,.4l-1.7-.4c-.9-.2-1.7-.7-2.4-1.3l-.5-.5-12.4-.2-1,2.3c-.6,1.4-2,2.3-3.5,2.3h-9.3l-16.9-.2c-2,0-3.9-1-5.1-2.6-.5-.7-1.1-2.1-1.9-2.4-.4-.1-.7-.1-1.1-.1-8.1,0-16.1,0-24.2,0s-4.3.7-6.1,1.9c-2.5,1.7-4.3,2.3-7.4,2.2-.9,0-1.7-.4-2.3-1l-1-1s-5.8,0-5.9,0c-.3,0-1.3,1.1-1.7,1.3-.8.5-1.6.8-2.4,1-1.7.3-3.7,0-5-1.2-1.1-.9-2.3-2.1-2.4-2.9-.2-1.4-.4-2.7-.7-4.1-.4-2.2-.7-4.3-1-6.5-.2-1.1-.3-2.2-.5-3.3-.3-1.1-.8-2-1.4-3-.5-.8-1-1.6-1.5-2.4-.2-.3-.4-.6-.6-.9-2.8-4.8-1.5-12.9,3.8-15.4,0,0,3.1-1.5,3.1-1.5.7-.3,1-1,1-1.7-.3-3.4-1.1-7-.1-10.4.9-3.2,2.2-6.6,4-9.4.4-.5.7-1.1,1.2-1.5,1.5-1.1,3.7-1.6,5.5-.9,0,0,2.1.8,2.1.8,1.4.5,2.5-.3,3.7-.8,1.1-.4,2.3-.6,3.5-.4,0,0,4.1.5,4.1.5,1,.1,1.5,1.1,2.2,1.7,1.1,1,2.3,1.4,3.6,1.5,1.3.1,2.6,0,3.9,0h45.3c.8,0,1.5-.2,2.1-.6,6.7-4.4,14.3-7.3,23.6-4.4.8.2,1.6.5,2.4.9s1.3.9,1.8.9c.2,0,.3,0,.5-.1.7-.3,1.3-.9,2.1-1.1s1.5-.1,2.3,0c0,0,4,.3,4,.3,1.1,0,2,.8,3.1.9,1.3.1,2.7,0,4-.2,1.5-.3,3.9-.1,5.1,1,2,1.8,1.5,5.4,3,7.5,0,0,2.8,3.7,2.8,3.7,1.2,2.3.8,5.6,0,8-.6,1.8-1.6,3.5-2,5.3-.3,1.4-.5,2.8-.8,4.3-.3,1.6-.3,3.4.2,5l1.6,5.5c.5,1.8.7,3.6.7,5.5l-.3,6.3c0,1.2-.3,2.3-.8,3.4l-2.5,5.3c-1.1,1.8-2.5,3.3-4.3,3.7-1.7.4-2.9.1-5.5-.3-1.1-.2-1.9-.9-3.1-1-1.1,0-2.1.2-3.1.5Z"/>
  </g>
</svg>