<?xml version="1.0" encoding="UTF-8"?>
<svg id="Layer_1" data-name="Layer 1" xmlns="http://www.w3.org/2000/svg" version="1.1" viewBox="0 0 271.3 161.9">
  <defs>
    <style>
      .cls-1 {
        fill: #000;
      }

      .cls-1, .cls-2 {
        stroke-width: 0px;
      }

      .cls-2 {
        fill: #fff;
      }
    </style>
  </defs>
  <path class="cls-2" d="M89.6,117.2v-50.3h106v50.3h-106ZM96.3,87.3c-.3,0-.8.2-1.3.3-2.1.4-3.7,1.6-4.8,3.5-.2.4-.4.9-.5,1.3-.2,2.3-.1,4.5,1.2,6.5.5.7.7,1.6,1.3,2.2.5.6.8,1.2.7,2-.2,1.7.3,3.4.6,5.1.3,1.8.6,3.6,1.3,5.3.3.7.7,1.2,1.4,1.3.8.2,1.7.4,2.4.2.6-.1,1.1-.8,1.6-1.2.2-.2.5-.4.7-.4,1.3,0,2.7.1,4,.2.4,0,.9,0,1.3,0,.4,0,1,0,1.1.2.5.9,1.3.9,2.1.8.2,0,.4,0,.7,0,.9.2,1.7-.3,2.4-.7.7-.4,1.1-1.3,2.1-1.2.7,0,1.4-.2,2.1-.3.5,0,1.1,0,1.6,0,2.5,0,4.9,0,7.4,0,2.7,0,5.5-.1,8.2-.2,1.6,0,3.3,0,4.9,0,.1,0,.3.1.4.2.4.6.7,1.2,1,1.8.5.8,1.1,1.3,2,1.3.7,0,1.4,0,2.1,0,.8,0,1.5-.1,2.3-.1.5,0,.9-.1,1.1-.6.2-.5.4-1.1.7-1.7,0-.2.3-.3.5-.3,1.4,0,2.8,0,4.2,0,.2,0,.5.3.7.4.2.2.3.4.4.6-.5.9-.1,1.8.8,1.9.8,0,1.5,0,2.3.1,1.5,0,3,0,4.5.1.7,0,1.5-.6,1.3-1.2-.3-.6,0-1,.3-1.4.2-.2.3-.5.5-.7.2-.2.5-.4.7-.4,2.7,0,5.5.1,8.2.2,1.2,0,2.3,0,3.5.1.2,0,.5.2.5.3.2.5.5.9,1,1,.8,0,1.6.1,2.4,0,.5,0,1-.3,1.3-.6.8-.9,1.6-1,2.7-.6.2,0,.4,0,.5,0,.5.1,1,.2,1.1.9,0,.3.4.6.6.7,1,.1,2,.3,3,.2.9,0,1.6-.8,2-1.6.6-1.1,1-2.2,1.5-3.3.6-1.2.8-2.4,1-3.7.3-1.8,0-3.5-.1-5.3-.2-2.8-1-5.5-1.9-8.2,0-.3-.1-.6,0-.9.3-2.4.7-4.7,1-7.1,0-.2.2-.4.4-.5,1-.7,1.8-1.6,2-2.8.3-1.8-.4-3.3-1.7-4.6-.7-.6-1.2-1.2-1.3-2.2-.1-.8-.6-1.6-.8-2.4-.2-.9-.6-1.8-1.5-1.9-.9-.2-1.9,0-2.9.1,0,0-.2,0-.2.2-.3.7-.9.6-1.5.6-.3,0-.5,0-.8,0-.8.1-1.4-.1-1.9-.8-.3-.3-.7-.6-1.1-.7-.6-.1-1.2,0-1.8-.1-1.5-.2-2.6.1-3.1,1.8-.6-.4-1.1-.6-1.6-.9-1.1-.8-2.3-1.7-3.6-2-2.1-.5-4.3-.6-6.5-.2-2.9.4-5.3,1.9-7.6,3.6-.2.2-.5.3-.7.4-.8.5-1.8.4-2.7.5-2,0-4,0-6,.1-1.2,0-2.4.1-3.7,0-2.5,0-5-.2-7.5-.2-2.9,0-5.7,0-8.6-.1-2.2,0-4.4,0-6.5-.1-1.3,0-2.5,0-3.8,0-1.1,0-2.2.2-3.3.2-.2,0-.6,0-.7-.3-.3-.3-.6-.7-.8-1.2-.4-.7-.9-.9-1.6-1-.8,0-1.6-.2-2.4-.2-.3,0-.7.2-1,.3-.4.2-.7.6-1.1.6-.9,0-1.7,0-2.6,0-.5,0-.7-.2-.9-.6-.3-.6-.9-.8-1.5-.7-1.6.2-2.8,1.1-3.6,2.5-1.3,2.3-2,4.9-2.4,7.5-.1.9,0,1.9,0,2.8.1,1.6.2,3.3.3,4.9Z"/>
  <path class="cls-1" d="M96.3,87.3c-.1-1.7-.2-3.3-.3-4.9,0-.9-.2-1.9,0-2.8.4-2.6,1.1-5.2,2.4-7.5.8-1.4,1.9-2.3,3.6-2.5.6,0,1.2.2,1.5.7.2.4.5.6.9.6.9,0,1.7.1,2.6,0,.4,0,.7-.4,1.1-.6.3-.1.6-.3,1-.3.8,0,1.6.1,2.4.2.7,0,1.3.3,1.6,1,.2.4.5.8.8,1.2.2.2.5.3.7.3,1.1,0,2.2-.2,3.3-.2,1.3,0,2.5,0,3.8,0,2.2,0,4.4,0,6.5.1,2.9,0,5.7,0,8.6.1,2.5,0,5,.2,7.5.2,1.2,0,2.4,0,3.7,0,2,0,4,0,6-.1.9,0,1.8,0,2.7-.5.2-.1.5-.3.7-.4,2.3-1.7,4.8-3.2,7.6-3.6,2.2-.3,4.4-.3,6.5.2,1.4.3,2.5,1.2,3.6,2,.5.3,1,.6,1.6.9.5-1.7,1.7-2,3.1-1.8.6,0,1.2,0,1.8.1.4,0,.9.3,1.1.7.5.7,1.1.9,1.9.8.3,0,.5,0,.8,0,.6,0,1.2,0,1.5-.6,0,0,.1-.2.2-.2,1,0,1.9-.3,2.9-.1.9.2,1.3,1,1.5,1.9.2.8.7,1.6.8,2.4.2,1,.7,1.6,1.3,2.2,1.3,1.2,2,2.8,1.7,4.6-.2,1.2-.9,2.1-2,2.8-.2.1-.3.3-.4.5-.4,2.3-.7,4.7-1,7.1,0,.3,0,.6,0,.9.9,2.7,1.7,5.3,1.9,8.2.1,1.8.4,3.5.1,5.3-.2,1.3-.5,2.6-1,3.7-.5,1.1-.9,2.3-1.5,3.3-.4.8-1.1,1.5-2,1.6-1,0-2,0-3-.2-.2,0-.5-.4-.6-.7-.1-.7-.6-.8-1.1-.9-.2,0-.4,0-.5,0-1-.5-1.9-.3-2.7.6-.3.3-.9.5-1.3.6-.8,0-1.6,0-2.4,0-.5,0-.9-.4-1-1,0-.1-.3-.3-.5-.3-1.2,0-2.3,0-3.5-.1-2.7,0-5.5-.1-8.2-.2-.2,0-.5.2-.7.4-.2.2-.3.5-.5.7-.4.4-.5.8-.3,1.4.3.6-.5,1.2-1.3,1.2-1.5,0-3,0-4.5-.1-.8,0-1.5,0-2.3-.1-1,0-1.3-1-.8-1.9-.1-.2-.2-.4-.4-.6-.2-.2-.4-.4-.7-.4-1.4,0-2.8,0-4.2,0-.2,0-.4.2-.5.3-.3.5-.5,1.1-.7,1.7-.2.5-.5.6-1.1.6-.8,0-1.5,0-2.3.1-.7,0-1.4,0-2.1,0-1,0-1.6-.6-2-1.3-.4-.6-.7-1.2-1-1.8,0-.1-.3-.2-.4-.2-1.6,0-3.3,0-4.9,0-2.7,0-5.5.2-8.2.2-2.5,0-4.9,0-7.4,0-.5,0-1.1,0-1.6,0-.7,0-1.4.3-2.1.3-1,0-1.4.8-2.1,1.2-.7.5-1.5.9-2.4.7-.2,0-.4,0-.7,0-.8,0-1.6,0-2.1-.8-.1-.2-.7-.2-1.1-.2-.4,0-.9,0-1.3,0-1.3,0-2.7-.1-4-.2-.2,0-.5.2-.7.4-.6.4-1,1.1-1.6,1.2-.8.2-1.6,0-2.4-.2-.7-.2-1.1-.7-1.4-1.3-.8-1.7-1-3.5-1.3-5.3-.3-1.7-.8-3.4-.6-5.1.1-.8-.2-1.4-.7-2-.5-.6-.8-1.5-1.3-2.2-1.3-2-1.4-4.2-1.2-6.5,0-.5.2-.9.5-1.3,1.1-1.9,2.6-3.1,4.8-3.5.5,0,.9-.2,1.3-.3ZM114.6,105.8c.4,0,.8,0,1.3,0,10.1,0,20.2,0,30.3,0,9.4,0,18.8.2,28.2,0,.5,0,.7-.2.7-.7,0-.6,0-1.3,0-1.9,0-2,0-4,0-6.1,0-2.3.1-4.6,0-6.8-.1-2.4-.2-4.8,0-7.2,0-.8,0-1.7,0-2.5,0-.5-.3-.6-.7-.6-2.3,0-4.5,0-6.8,0-.9,0-1.8-.1-2.8,0-.8,0-1.5.2-2.3.2-.9,0-1.7.1-2.6,0-1.5,0-2.9-.1-4.4-.1-3.2,0-6.4,0-9.6,0-3.4,0-6.7,0-10.1,0-1.6,0-3.1.1-4.7.1-2.2,0-4.4,0-6.6-.1-2.4,0-4.7,0-7.1,0-1.1,0-2.2,0-3.3,0,0,.3,0,.5,0,.7,0,1,.1,2,.1,2.9,0,6.1,0,12.3,0,18.4,0,.7,0,1.4-.1,2,0,0,0,.2,0,.3.2.4.3.9.5,1.4ZM118.9,110.7s0,0,.1.1c.2-.1.4-.2.6-.4.3-.4.5-.9.8-1.3.1-.2.4-.2.6-.3,0,.2,0,.5,0,.6-.2.4-.4.8-.6,1.2.3.2.6.2.7-.2.1-.3.3-.6.5-.8,0-.1.3-.1.4-.2,0,.2.2.4.1.5,0,.3-.2.6-.3.9,0,0,0,0,.1.1.3-.2.5-.4.8-.7.1.2.2.4.3.6h2.7c-.1-.5-.7-.9-.4-1.5.4.3.8.7,1.1,1.1.3.4.6.5,1,.5,4.4,0,8.7,0,13.1,0,6.5,0,12.9,0,19.4,0,.2,0,.4-.1.5-.3.3-.4.5-.9.9-1.3,0-.1.3-.1.5-.2,0,.2,0,.4,0,.5-.1.4-.3.8-.5,1.2,0,0,0,0,.1.1.2-.1.5-.2.6-.4.3-.5.6-1,.9-1.5,0-.1.3-.1.4-.2,0,.2.1.3,0,.5-.2.5-.4,1-.6,1.4.9.4.8-.8,1.4-.9,0,.3,0,.6,0,1,.4-.3.6-.4.8-.5.3.2.5.3.8.5,0-.5-.1-.9-.1-1.2,0-.1.1-.3.2-.3.1,0,.3,0,.4.2.1.2.2.5.2.7,0,.4.3.5.6.3,0-.5,0-1,0-1.6,0,0,.2,0,.3,0,.2.5.3,1.1.5,1.6,0,0,.1,0,.2,0,0-.7,0-1.5.1-2.2,0,0,.2,0,.3,0,.2.7.3,1.5.5,2.2,0,0,.1,0,.2,0,0-.2,0-.3,0-.5.1-.3.3-.7.4-1,.1.3.4.6.4,1,0,.5.2.7.6.6.2-.4.3-.8.5-1.1.2.3.4.6.6.9,0,0,.3,0,.3,0,.3.5.6.2.9,0,.5-.5,1.1-1,1.6-1.5.1-.1.3-.2.6-.4,0,1-.7,1.5-1.1,2.2.2,0,.4-.1.6-.3.5-.5.9-1,1.4-1.4.2-.2.4-.2.6-.3l.2.2c-.4.6-.9,1.2-1.3,1.8,1.3-.2,1.6-1.7,2.9-2.2,0,1-.7,1.6-1.2,2.3.2,0,.3,0,.4,0,.5-.6,1.1-1.2,1.6-1.8,0-.1,0-.5-.1-.7-.2-.4-.5-.7-.7-1,0,0,0,0,.1-.1.4.2.7.4,1.2.7,0-1.1-1.5-1.4-1.4-2.6.6.4,1,.8,1.5,1.2.2-.5.1-.8-.2-1.1-.3-.3-.7-.6-.6-1.3.4.3.7.5,1.2.8,0-.7,0-1.3,0-1.9,0-2.4.1-4.7-.7-7-.2-.6-.8-1.3-1.3-1.7-.5-.3-1.2,0-1.9,0,0,1.4,0,2.8,0,4.1,0,2.2.1,4.4.1,6.5,0,1.4-1,2.2-2.3,2.1-1.3-.1-2.5-.2-3.8-.2-5.3,0-10.5,0-15.8,0-13,0-26.1,0-39.1,0-.3,0-.7,0-1,0-.7,0-1.1-.2-1.1-.9,0-.6-.1-1.3-.2-2-1.1.3-2.2.5-3.5.8.4,1.8.6,3.5,1,5.1,0,.4.6.7.9,1.1,0,0,0,0,.1-.1-.2-.5-.9-.8-.6-1.6.5.5.9.9,1.3,1.3.2.3.5.5.8.3-.7-.9-1.5-1.9-2.2-2.8-.2-.3-.5-.5,0-.9.2.1.4.2.5.4.4.5.8,1,1.2,1.5.6.7,1.2,1.3,1.9,1.9.2.2.5.2.8.3,0,0,0-.1,0-.2-.1-.1-.3-.3-.4-.4-.7-.8-1.4-1.6-2.1-2.5-.1-.2,0-.5,0-.7.2,0,.5.1.6.3.4.3.6.8,1,1.1.7.7,1.5,1.4,2.3,2.1,0,0,0,0,.1-.1-.8-.8-1.8-1.5-2.2-2.6,0,0,.2-.2.2-.2.9.8,1.7,1.5,2.6,2.3.3-.5.5-1,.8-1.5,0-.1.3-.2.5-.2,0,.2.1.4,0,.5-.2.6-.5,1.1-.8,1.6.7-.6,1-1.7,1.8-2.2,0,0,.2,0,.2.1-.3.7-.7,1.4-1,2.1ZM113.1,89.9c0-.3,0-.6,0-.8,0-3,.1-6.1.2-9.1,0-.8.4-1.1,1.1-1.1,1.1,0,2.3,0,3.4,0,3.5,0,7,0,10.4,0,2.3,0,4.5-.1,6.8-.2,1,0,2,0,2.9,0,1.3,0,2.7,0,4,0,3,0,5.9,0,8.9,0,.6,0,.9-.2,1.3-.8.7-1.2,1.5-2.4,2.3-3.6-.4,0-.7,0-1,0-1.3,0-2.6-.2-3.8-.2-1.7,0-3.4.1-5.1.2-1.4,0-2.8.3-4.2.2-2.3,0-4.5-.3-6.8-.3-2,0-4,.1-6,.2-.4,0-.7,0-1.1.1-.5,0-.7.4-.9.8.4-.2.8-.4,1.2-.7.1,0,.3,0,.5,0,0,.1,0,.3,0,.4-.3.3-.6.6-.8.9,0,0,0,0,.1,0v.8c-.3,0-.6,0-1,0-.2,0-.3.2-.5.2-.2,0-.5,0-.7,0,0-.2,0-.5.2-.7,0-.2.3-.3.4-.4,0,0,0,0-.1-.1-.5.4-1,.9-1.5,1.2-.2.1-.5.1-.7.2,0-.3,0-.6.2-.7.3-.5.8-.9,1.2-1.4,0-.1-.1-.4-.2-.8h-9.7c0,.4-.2.7-.7.7-.5,0-.6-.4-.6-.9-.4,0-.7,0-1,0-1.2-.2-1.2-.2-1.5,1-.8,3.4-.8,6.8-.7,10.3,0,1.3,0,2.6.7,3.7.2.3.5.7.8.7.7.1,1.3,0,2.1,0ZM156.2,78.6c0,0,0,.1,0,.2.8,0,1.7.1,2.5.1,1.2,0,2.4-.1,3.6-.1,1.7,0,3.5.2,5.2.2,2.4,0,4.7,0,7.1,0,.3,0,.7.1.8.3.3.5.7,1.1.7,1.7,0,1-.2,2.1-.2,3.2,0,1.8,0,3.6,0,5.4,0,.4,0,.7.1,1,1.8.1,2.6-.3,3.2-2,.2-.7.3-1.4.4-2.1.2-1.7.7-3.4.5-5.1,0-.2,0-.4-.2-.6-1.8-1.8-3.8-3.5-5.5-5.3-.8-.8-1.6-1.3-2.7-1-.2,0-.4,0-.6,0-3.5,0-7,0-10.5,0-.6,0-1.2.3-1.6.7-.6.5-1,1.2-1.6,1.9-.4.5-.8,1-1.2,1.5ZM107.1,72.3c-1.4,0-2.8,0-4.2,0,0,0,0,0,0,0-.7,0-1.1.2-1.3.9-.2.6-.5,1.1-.6,1.6-.8,3.1-.7,6.3,0,9.4.1.4.2.9.3,1.3.5,1.8,1,3.6,2.2,5.1.1.1.3.4.4.4.6,0,1.2,0,1.8,0,0-.4-.1-.7-.1-1,0-.2.2-.4.3-.6.2,0,.4.2.5.3,0,0,0,.1.2.2-1.3-6-1.3-11.8.5-17.7ZM153.3,78.5c0,0,0,.1.1.2.4,0,.8,0,1.1,0,.2,0,.4,0,.4-.2.5-.7,1.1-1.4,1.5-2.2.9-1.7,2.4-2.5,3.9-3.5,1.3-.8,2.8-1.2,4.3-1.6,1.8-.4,3.6-.5,5.4.2.5.2,1.1.4,1.5.7,1.1.6,2.2,1.1,3.1,2,3,3.1,6.1,5.9,9.7,8.2,1.2.8,2.4,1.3,3.7,1.6,1.6.4,3.1-.1,4.6-.7.9-.4,1.6-1.8,1.5-2.8,0-.4,0-.8-.3-1.2-.3-.6-.7-1.2-1-1.9,0,0-.2,0-.3.1.1.5.2,1,.3,1.5,0,.4.2.9.1,1.3-.2,1.1-2,2.1-3.3,1.9-1.1-.2-2.1-.5-3.2-.8-.3,0-.6-.2-.8-.3-1.7-1.3-3.4-2.6-5.1-3.9-.5-.4-.8-1-1.3-1.4-1.2-1.1-2.4-2.1-3.6-3.1-.8-.7-1.6-1.3-2.6-1.7-.3-.1-.6-.3-.9-.5-1.8-1.2-3.8-1.3-5.8-1.2-1.4,0-2.7.6-4,1-2.4.8-4.6,1.9-6.2,4-1,1.4-2,2.8-3,4.2ZM183.6,93.7c0,0,0,.2,0,.3.6,2.2.8,4.5.9,6.8,0,.4,0,.9,0,1.3-.1.8-.4,1.6-.5,2.4-.3,1.6-.6,3.2-.9,4.8-.1.5-.3,1.1-.4,1.6h1.2c-.1-.3-.3-.6-.4-.9,0-.1.1-.4.2-.5,0,0,.3,0,.4.2.2.2.4.5.5.8.4.6,1,.7,1.5,0,.2-.2.3-.4.5-.5.2-.1.4-.1.6-.2,0,.2,0,.5,0,.7,0,.3-.3.5-.4.7.2.2.4.3.7.5.3-.9.7-1.7.9-2.5.3-2.5.6-5,.8-7.4,0-.6.1-1.1,0-1.7-.2-2.4-.7-4.8-1.9-6.8-1.3.1-2.5.3-3.7.4ZM97.8,90.1c0-.2-.2-.5-.3-.7-.4-1-.4-.9-1.5-.8-1.7.2-3,.9-4.1,2.2-.5.7-.9,1.4-.9,2.3-.1,1.6.3,3.1,1,4.6,1.4,3.1,3.9,5.1,6.9,6.7.3.2.6.3,1,.3,1.7,0,3.3,0,5-.2.5,0,1.1-.1,1.6-.2.6-.1,1.2-.2,1.8-.4.5-.2.9-.5,1.6-.5,1,0,1.9-.3,2.9-.5.2,0,.5-.3.6-.5,0-.4,0-.8,0-1.2-.6.2-1.1.3-1.7.5-1.6.3-3.3.6-4.9.8-2.3.3-4.5.2-6.8-.2-1.4-.2-2.6-.7-3.5-1.7-.9-.9-1.7-1.9-2.5-2.9,0-.1-.2-.2-.2-.4-.3-1.1-.6-2.2-.5-3.3.1-1.6.9-2.6,2.3-3.2.8-.3,1.6-.4,2.5-.6ZM99,95.3c-.4,1.4-.8,2.7-1.1,4.1-.2.9,0,1,.8,1.3,2.2.7,4.4.6,6.6.3.5,0,.7-.3.7-.8.1-.8.3-1.6.4-2.4.1-.7.3-1.5.5-2.2-2.6-.1-5.2-.2-7.9-.3ZM101.4,71.1c0,0-.1-.1-.2-.2-.4.3-.8.4-1.1.8-.5.8-1.1,1.6-1.4,2.4-1.2,2.8-1.9,5.7-1.6,8.7.1,1.3.3,2.6.7,3.7.5,1.4,1.1,2.7,1.8,4,.5.9,1.1,1.8,2.4,1.7.2,0,.5.1.7.2.2,0,.4,0,.6.1,0-.2,0-.2-.1-.3-1.6-1.6-2.4-3.6-2.8-5.7-.5-2.1-.9-4.3-1.1-6.4-.3-3.1,0-6.1,1.9-8.8,0-.1.1-.3.2-.4ZM106.6,112.4c.6-.3.5-.7.4-1.1-.4-1.6-.7-3.1-1-4.7-.2-.8,0-.8-.9-.7-2.4.3-4.7.5-7-.3,0,0,0,0-.1,0-.2,2,1.1,6.1,2.2,6.7-.4-.8-.7-1.6-.4-2.6.2.4.4.6.6.9.2.4.4.9.7,1.3.1.2.4.2.7.4-.3-.9-.7-1.6-.4-2.6.3.3.4.5.5.7.2.4.4.9.6,1.3.1.2.3.4.5.4.5,0,1.1,0,1.6,0,.2-.7.3-1.4.5-2.1,0-.2.4-.2.5-.3,0,.2.2.4.2.6,0,.7-.2,1.3-.4,2h0c0,0,.3,0,.3-.2,0-.3,0-.7.2-1,0-.2.3-.3.4-.5.1.2.3.4.3.5,0,.4,0,.8,0,1.3ZM179,111.7c.4,0,1,0,1.6,0,.1,0,.3-.1.4-.2.2-.3.4-.7.5-1,.5-2.2,1-4.4,1.5-6.7.1-.6.3-1.3.4-1.9,0-.4.2-.8.2-1.3,0-.6,0-1.2-.1-1.7-.2-1.5-.5-3.1-.8-4.6,0-.2-.3-.5-.6-.5-.5,0-1,0-1.5,0-.3.9-.3.9,0,1.6.5,1.4.8,2.8.8,4.3,0,1.5,0,3,0,4.5,0,2.4-.4,4.7-1.7,6.8-.2.4-.5.7-.7.9ZM183.6,72.8c0,.2,0,.3,0,.4.2,1.6.3,3.3.5,4.9,0,.9.3,1.3,1.1,1.6.4.2.8.4,1.2.6.7.5,1.4.6,2.3.6,0-2.8-.6-5.5-1.6-8.2h-3.6ZM188.3,112.9c.3,0,.5,0,.8,0,.6.1.9-.1,1-.6.5-1.4,1.1-2.9,1.6-4.3.3-.9.5-1.9.5-2.9,0-1.4-.2-2.9-.4-4.3-.4-2.8-1-5.5-2.1-8-.3,0-.6.1-1,.2,2.8,6.8,1.6,16.4-.5,20ZM108.4,72c-.4,1.6-.8,3.3-1.1,4.9-.8,4-.5,7.9.3,11.8.2,1,.3,2.1,1.5,2.5,0,0,0,0,0,0,.2,0,.3,0,.6.2,0-.5,0-.9-.2-1.2-.8-1.5-1.3-3-1.3-4.7,0-1.7,0-3.4,0-5.1,0-2.3.4-4.5,1-6.6.2-.5.4-1,.6-1.5,0-.2.3-.3.5-.5h-2.2ZM187.6,90c0,0,.1,0,.2.1.1-.2.3-.5.4-.7.2-1.3.4-2.6.6-3.8,0-.3-.1-.5-.4-.5-.4,0-.8-.2-1.2-.3-1.1-.3-2.1-.7-3.2-1.1-.2,2.2-.4,4.3-.6,6.6.5-.1,1.1,0,1.4-.3.6-.5.6-.5,1.1,0,.4.4.8.3,1-.2,0-.2.2-.4.3-.6,0-.1.3-.2.4-.2.1,0,.3.3.3.4,0,.2,0,.5-.1.7ZM94.1,103.3c.1,1.1.2,2,.4,3,.2,1,.3,2,.6,3,.3,1.2.6,2.5,1,3.7.4,1,2.1,1.2,2.9.5-.4-.7-1-1.3-1.3-2-.8-2-1.2-4-1.2-6.1,0-.5-.2-.8-.6-1.1-.5-.3-1-.6-1.7-.9ZM113.2,94.1c-.4.1-.7.3-.9.3-1.1.2-1.7.9-2,1.9-.2.7-.4,1.3-.5,2-.1.7-.2,1.3-.3,2.2,1.3-.2,2.3-.4,3.4-.6.1,0,.3-.2.3-.4,0-1.7,0-3.4,0-5.3ZM181.4,81.6c0,0-.1,0-.2.1,0,.4-.1.7-.2,1.1,0,1,0,2.1-.1,3.1,0,.3,0,.6,0,1,.2,1.4,0,2.8-.5,4.2.8.7,1.6.4,1.7-.6.3-2.3.5-4.7.8-7,0-.1,0-.3,0-.3-.5-.5-1-1-1.5-1.5ZM108.7,105.2c-.3.1-.5.2-.7.2-.7,0-.8.4-.7,1,.1,1.3.5,2.4.8,3.7.3,1.1.8,2.1,1.5,2.9,0,.1.3.3.4.3.7-.2,1.3-.4,2.1-.6-.4-.1-.6-.1-.8-.2-1.3-.6-1.6-1.9-1.9-3.1-.3-1.3-.4-2.7-.7-4.2ZM190.9,78.9s0,0,.1,0c-.1-1-.2-2.1-.4-3.1-.2-1.3-.5-2.5-.8-3.8-.1-.5-.7-.7-1.2-.5-.4.2-.4.6-.3.9,0,.2.1.3.2.5.3,1,.8,2,1,3.1.3,1.5.4,3,.5,4.5,0,.4.1.6.6.6.5,0,.5-.3.4-.7,0-.5,0-1-.1-1.6ZM182.8,77.9c0-2-.4-3.9-.9-5.7,0-.3-.3-.6-.6-.7-.5-.1-1,0-1.4,0,.2.6.5,1.2.7,1.8.2.8.2,1.7.3,2.5,0,.2,0,.5.2.6.5.5,1.1,1,1.7,1.5ZM147.1,112.4h-5.8c.2.4.3.8.5,1.2.1.4.3.5.8.5.9,0,1.9-.1,2.8-.1,1.3,0,1.3,0,1.7-1.5ZM107.3,100.6c1.2,0,1.2,0,1.2-1.1,0-1.6.4-3.1.9-4.6.2-.5.5-1,.4-1.6,0-.2-.2-.3-.2-.5-.1.1-.3.2-.4.3-1.3,2.3-1.4,4.8-1.9,7.3,0,0,0,0,0,0ZM98.1,93.7c-.5.1-1-.3-1.4.2-.5.9-.9,1.8-1.4,2.7,0,.1,0,.4,0,.5.4.5.8,1,1.3,1.5.5-1.7.9-3.2,1.4-4.9ZM191,85.1c-.8,0-1,.3-1,.9,0,1.8-.3,3.5-1.1,5.1-.1.2-.2.4-.3.7,1.2.2,1.4,0,1.6-1,.1-.9.4-1.7.5-2.6.2-1,.2-2,.4-3.1ZM99.1,93c.2-.7-.6-1.5-1.3-1.4-.7.1-1.4.3-2.1.6-1,.4-1.8,2-1.1,3.1.4-.8.8-1.5,1.2-2.3.3-.5.6-.7,1.2-.6.6,0,1.1,0,1.7,0,0,.1.2.3.4.6ZM161.9,112.4h-6.3c.1.6.2.9.9.8,1.3,0,2.5,0,3.8,0,.5,0,1.3.2,1.6-.8ZM170.6,72.7c-.9-.7-3.5-1.2-5.7-.2,1.9,0,3.7.2,5.7.2ZM161.8,114.6c-.2-.2-.4-.4-.6-.4-.7,0-1.4,0-2.1,0-1,0-1.9,0-2.9,0-.2,0-.4,0-.6.2,0,0,0,.1,0,.2h6.1ZM113.1,90.8c-.2,0-.5,0-.6.2-.3.6-.5,1.3-.8,2h.5c.3-.7.5-1.4.8-2.2ZM110.7,92.6c0,0,.1,0,.2,0,.3-.6.6-1.2,1.1-1.9-.4,0-.7,0-.8.2-.2.5-.3,1.1-.5,1.7ZM179.3,72.5c0,0,0-.1.1-.2-.3-.2-.5-.5-.9-.6,0,0-.3.4-.6.7.6,0,.9,0,1.3.1ZM177.2,91.6c-.5,0-.9,1.1-.7,1.8.2-.6.4-1.2.7-1.8ZM178.4,93.2c0,0,.2,0,.2,0,.2-.5.4-.9.6-1.4,0,0,0-.2-.2-.3,0,0-.2,0-.3.1-.1.5-.2,1-.4,1.5ZM184.6,91.3c-.5,0-.7.3-.4,1.1.1-.3.2-.7.4-1.1ZM106.8,94.2c0-.3-.1-.7-.2-1.1-.5.2-.4.7.2,1.1ZM185.2,91.3c0,0-.2.1-.2.2,0,.2.2.5.3.7,0-.2.3-.3.2-.5,0-.1-.2-.3-.3-.4Z"/>
  <path class="cls-1" d="M138.6,109.8c-.3-.3-.5-.6-.8-.9.2-.1.4-.4.4-.3.3.1.6.4.9.6-.2.2-.3.3-.6.6Z"/>
  <path class="cls-1" d="M135.3,109.6c-.3-.3-.6-.5-.9-.8.1,0,.3-.3.4-.3.3.2.7.4,1,.6-.1.1-.2.2-.5.4Z"/>
  <path class="cls-1" d="M117.1,109.5c0,0-.2-.2-.2-.3,0,0,0-.2,0-.3.2-.3.4-.5.6-.8,0,0,.3.2.2.2-.1.4-.2.7-.4,1,0,0-.1,0-.2.1Z"/>
  <path class="cls-1" d="M149.5,76.2c.3.2.5.3.7.5,0,.1.1.4,0,.5,0,.1-.3.2-.4.2-.5,0-.9-.6-.8-1.1-.3-.3-1-.4-.6-1,0-.1.6,0,.9,0,.4.2.5.5.2.9Z"/>
  <path class="cls-1" d="M146.8,74.9c.3.5.6.8.9,1.2.2.4.4.9.5,1.4,0,.1,0,.4-.2.4-.1,0-.4,0-.4-.1-.3-.9-.6-1.8-.9-2.6,0,0,0,0,.2-.3Z"/>
  <path class="cls-1" d="M110.2,77c.3-.4.6-.6.9-.9.1.2.3.3.3.5,0,.4,0,.9-.6.9-.1,0-.3-.2-.6-.5Z"/>
  <path class="cls-1" d="M112.5,75.5c-.3.2-.5.4-.7.4-.5,0-.7-.3-.7-.7,0-.2.2-.3.3-.5.3.2.6.5,1,.8Z"/>
  <path class="cls-1" d="M144.8,75.3c.3.2.6.4.8.6-.2.2-.5.5-.6.4-.3,0-.5-.4-.8-.6.2-.1.3-.3.6-.5Z"/>
  <path class="cls-1" d="M111.7,77.6c.2-.3.4-.7.5-.7.5,0,.5.5.5.9,0,.2-.2.4-.4.6-.2-.2-.4-.5-.7-.8Z"/>
  <path class="cls-1" d="M113.3,75.4c.3.4.6.6.7.9,0,0-.3.5-.4.5-.4,0-.7-.2-.7-.6,0-.2.2-.4.4-.8Z"/>
  <path class="cls-1" d="M115.9,76c-.4.2-.6.5-.8.5-.2,0-.5-.3-.5-.5,0-.2.3-.5.5-.5.2,0,.4.3.7.5Z"/>
  <path class="cls-1" d="M152.2,75.9c-.2,0-.4.3-.5.2-.2,0-.4-.2-.5-.4.2-.1.3-.3.5-.3.2,0,.4.2.6.3v.2Z"/>
  <path class="cls-1" d="M173.7,76.4c-.5,0-.9.2-1.4.2-.2,0-.5-.2-.6-.3,0,0,.1-.5.2-.5.4,0,.9,0,1.3,0,.2,0,.4.2.6.3,0,0,0,.1,0,.2Z"/>
  <path class="cls-1" d="M103.8,88.2c-.1.2-.3.4-.4.4-.2,0-.4-.2-.5-.3-.2-.4-.3-.8-.3-1.1,0-.1.1-.4.2-.4.2,0,.4,0,.5.2.2.4.3.8.5,1.3Z"/>
  <path class="cls-1" d="M103.4,89.5c.7-.2,1.5,0,1.7.4,0,.1.1.4,0,.4-.1,0-.4.2-.5.1-.4-.3-.8-.6-1.3-1Z"/>
  <path class="cls-1" d="M105.1,87.6c.2.2.5.5.8.8,0,0,0,.2,0,.3,0,0-.3.2-.3.1-.3-.2-.5-.5-.8-.8,0,0,0-.2,0-.3,0,0,.1,0,.3,0Z"/>
  <path class="cls-1" d="M186.6,108.9c-.2.4-.4.8-.6,1.2,0,.1-.4.2-.5.1-.1,0-.2-.4-.2-.5.1-.4.3-.7.6-1,0-.1.3-.2.4-.2.1,0,.2.3.3.4Z"/>
  <path class="cls-1" d="M184.2,107.5c0,0,.2-.3.4-.3.3,0,.8.8.7,1.2,0,.2-.3.4-.4.4-.3,0-.8-.7-.7-1.4Z"/>
  <path class="cls-1" d="M188.2,108.6c-.4.2-.6.5-.7.4-.3-.2-.5-.5-.7-.7.2-.1.4-.4.5-.4.3.1.5.4,1,.7Z"/>
  <path class="cls-1" d="M188.1,105.7c.2.3.4.6.5.9,0,0-.1.4-.2.4-.1,0-.4,0-.4-.2,0-.3-.1-.7-.2-1.1.1,0,.2,0,.4,0Z"/>
  <path class="cls-1" d="M104.6,110.1c-.1.5-.2,1-.3,1.4,0,.1-.3.2-.4.3,0-.2-.3-.3-.2-.5,0-.5.1-.9.3-1.3,0-.1.3-.2.4-.4.1.1.2.3.3.4Z"/>
  <path class="cls-1" d="M103.3,109.7c-.1.1-.2.4-.4.4-.1,0-.3-.2-.5-.3,0,0-.1-.2-.1-.3,0-.3,0-.5,0-.8.2.2.4.3.6.5,0,.1.1.3.2.5Z"/>
  <path class="cls-1" d="M186.7,88.3c0,.6-.5,1.2-.8,1.1-.2,0-.5-.4-.4-.5.2-.4.5-.7.7-1,.2.2.4.3.5.4Z"/>
  <path class="cls-1" d="M184.8,88.3c-.3-.4-.5-.6-.6-.8,0-.2.4-.5.5-.5.2,0,.5.3.5.6,0,.1-.2.4-.5.7Z"/>
  <path class="cls-1" d="M188,87.4c-.3.2-.5.4-.7.6-.1-.2-.4-.4-.4-.5,0-.2.3-.4.4-.7.2.2.3.3.6.6Z"/>
  <path class="cls-1" d="M185,88.8c-.3.2-.5.4-.6.4-.2,0-.4-.2-.4-.4,0-.1.2-.4.4-.4.2,0,.3.2.7.4Z"/>
</svg>