<?xml version="1.0" encoding="UTF-8"?>
<svg id="Layer_2" data-name="Layer 2" xmlns="http://www.w3.org/2000/svg" version="1.1" viewBox="0 0 271.3 161.9">
  <defs>
    <style>
      .cls-1 {
        fill: #000;
        stroke-width: 0px;
      }
    </style>
  </defs>
  <path class="cls-1" d="M155.3,76.6c0-.6,0-1.2.1-1.8,0-.4.3-.7.7-.7.5,0,.6.4.7.8,0,1.1.1,2.1.2,3.2,0,.5-.2.9-.7.9-.5,0-.8-.3-.9-.8,0-.5,0-1,0-1.5,0,0,0,0,0,0Z"/>
  <path class="cls-1" d="M149.7,76.7c0,.6,0,1.2,0,1.8,0,.4-.1.7-.6.8-.4,0-.7-.2-.7-.6,0-.3,0-.7,0-1,0-1.1,0-2.1.1-3.2,0-.4.1-.8.5-.7.2,0,.6.4.6.6,0,.7,0,1.5,0,2.3,0,0,0,0,0,0Z"/>
  <path class="cls-1" d="M130.1,67.3c0,1,0,2,0,2.9,0,.2,0,.4,0,.5-.2.3-.4.6-.6.6-.2,0-.7-.3-.7-.5-.1-.8-.1-1.7-.1-2.6,0-.4,0-.9.1-1.3,0-.3.2-.5.4-.8.3.2.6.3.8.5.1.2.1.5.2.6Z"/>
  <path class="cls-1" d="M113.7,71.8c.5,0,1.1-.2,1.6-.2.5,0,1,0,1.4.1.2,0,.4.5.4.7,0,.2-.3.6-.5.6-1.3,0-2.5.4-3.8,0-.6-.2-.8-.6-.6-.9.1-.2.4-.3.7-.4.2,0,.5,0,.8,0,0,0,0,0,0,0Z"/>
  <path class="cls-1" d="M144.6,67.9c0-.3,0-.6,0-.8,0-.2.3-.5.5-.5.2,0,.5.1.6.3.1.1.2.4.2.5.1.9.2,1.8.3,2.7,0,.2,0,.3,0,.5,0,.4-.3.8-.8.7-.5,0-.6-.4-.7-.8,0-.9,0-1.8-.1-2.6Z"/>
  <path class="cls-1" d="M142.5,80.9c-.9-.2-1.8-.3-2.7-.5-.2,0-.5-.4-.5-.6,0-.2.3-.5.5-.6.3,0,.6,0,.9,0,.6,0,1.3,0,1.9,0,.2,0,.4,0,.5,0,.7,0,1,.4,1,.8,0,.5-.4.7-1.1.6-.2,0-.4,0-.7,0,0,0,0,0,0,0Z"/>
  <path class="cls-1" d="M143.4,65.5c-1.3,0-2.5,0-3.6,0-.2,0-.4-.2-.7-.3.1-.3.2-.8.4-.8,1.3-.3,2.5-.6,3.8-.3.4,0,.7.4.5.8,0,.3-.4.5-.6.6Z"/>
  <path class="cls-1" d="M130.2,76.1c0,.6,0,1.2,0,1.9,0,.5-.2.8-.7.8-.5,0-.7-.3-.7-.8,0-1.2.1-2.3.2-3.5,0-.2,0-.4.1-.5.2-.2.4-.3.6-.5.2.2.4.4.4.7,0,.6,0,1.3,0,1.9,0,0,0,0,0,0Z"/>
  <path class="cls-1" d="M155.7,65.8s0,0,0,0c1.2,0,1.2,0,1.2,1.2,0,.8,0,1.7,0,2.5,0,.6-.2,1-.7,1-.5,0-.8-.3-.8-1,0-1.2,0-2.5,0-3.7,0,0,.1,0,.2,0Z"/>
  <path class="cls-1" d="M122.7,76.3c0,.5,0,1.1,0,1.6,0,.4-.1.8-.6.8-.5,0-.8-.3-.8-.7,0-1.2,0-2.4,0-3.6,0-.4.3-.7.7-.6.2,0,.5.4.5.7,0,.6,0,1.2,0,1.8,0,0,0,0,0,0Z"/>
  <path class="cls-1" d="M117.8,76.8c0-.7,0-1.5.1-2.2,0-.2.3-.4.5-.7.2.2.5.4.5.6,0,1.4.1,2.8.2,4.2,0,.4-.2.7-.6.6-.4,0-.6-.3-.6-.7,0-.7,0-1.3,0-2,0,0,0,0,0,0Z"/>
  <path class="cls-1" d="M146,77.5c0,.5,0,.9-.6,1-.6,0-.7-.4-.8-.9,0-1,0-2,0-3,0-.2,0-.4.1-.5.2-.2.4-.3.7-.5.2.2.4.4.5.7.1,1.1.1,2.2.2,3.3Z"/>
  <path class="cls-1" d="M152.6,79.2c.5,0,1.1,0,1.8,0,.4,0,.8.1.9.6,0,.5-.4.7-.8.7-1,0-2,0-3,0-.2,0-.5-.2-.7-.3-.3-.3-.2-.8.3-.9.5,0,1.1,0,1.7-.1Z"/>
  <path class="cls-1" d="M137.1,76c0-.4,0-.8,0-1.3,0-.4.1-.8.6-.7.2,0,.5.4.6.6.1,1.2.2,2.5.2,3.7,0,.4-.2.7-.6.7-.5,0-.6-.3-.6-.7,0-.8,0-1.6-.1-2.4h0Z"/>
  <path class="cls-1" d="M115.7,65.5c-.9,0-1.9,0-2.8,0-.2,0-.6-.3-.6-.4,0-.2.2-.6.4-.7.6-.2,1.2-.3,1.9-.3.5,0,1,0,1.4,0,.5,0,.9,0,.9.7,0,.4-.3.7-1,.7,0,0-.2,0-.3,0,0,0,0,0,0,0Z"/>
  <path class="cls-1" d="M125.5,73.1c-.6,0-1.1,0-1.5-.2-.3,0-.4-.4-.6-.7.2-.2.5-.5.7-.5,1-.1,2-.2,3-.2.6,0,1,.2.9.7,0,.5-.4.7-.9.7-.6,0-1.2.1-1.7.2Z"/>
  <path class="cls-1" d="M141.4,71.8c.5,0,1.1,0,1.7.1.4,0,.8.3.8.7,0,.5-.4.7-.9.7-1,0-2.1-.2-3.1-.3-.2,0-.5-.4-.5-.5,0-.2.3-.6.5-.6.4-.1.9-.1,1.5-.2Z"/>
  <path class="cls-1" d="M127.4,80.6c-1,0-2.1-.1-3.1-.2-.4,0-.8-.2-.6-.7,0-.2.5-.5.7-.5.8,0,1.7,0,2.5,0,.2,0,.4,0,.7,0,.4,0,.7.3.7.8,0,.5-.4.6-.8.6Z"/>
  <path class="cls-1" d="M137.4,68.5c0-.7,0-1.3.2-2,0-.2.3-.5.5-.5.2,0,.6.3.6.5.1,1.2.2,2.4.2,3.6,0,.2-.4.6-.7.6-.4,0-.6-.3-.6-.7,0-.5,0-1,0-1.5,0,0,0,0,0,0Z"/>
  <path class="cls-1" d="M110.1,76.2c0-.5,0-1,0-1.4,0-.4.1-.8.6-.7.2,0,.5.4.6.7.1.5,0,1,0,1.5,0,.5,0,1,0,1.5,0,.4,0,.8-.5.9-.5,0-.7-.3-.7-.7,0-.6,0-1.2-.1-1.8,0,0,0,0,0,0Z"/>
  <path class="cls-1" d="M148.2,69.2c0-.6,0-1.3.2-1.9,0-.3.4-.5.6-.7.2.2.5.4.5.7,0,1,0,2,0,3,0,.4-.3.8-.8.7-.5,0-.6-.4-.6-.8,0-.3,0-.7,0-1,0,0,0,0,0,0Z"/>
  <path class="cls-1" d="M125.6,65.6c-.4,0-.8,0-1.2,0-.2,0-.5-.2-.6-.4,0-.1.2-.4.3-.5.3-.2.6-.3,1-.3.8,0,1.6,0,2.3,0,.4,0,.9,0,.9.6,0,.5-.4.7-.8.7-.7,0-1.3,0-2,0,0,0,0,0,0,0Z"/>
  <path class="cls-1" d="M122.5,68.9c0,.5,0,1.1,0,1.6,0,.4-.2.8-.7.7-.5,0-.6-.4-.6-.8,0-1.1.2-2.2.3-3.3,0-.3.2-.7.6-.6.2,0,.5.4.5.7,0,.5,0,1.1,0,1.7,0,0,0,0-.1,0Z"/>
  <path class="cls-1" d="M115.4,80.4c-.7,0-1.4,0-2.1,0-.2,0-.5,0-.7-.2-.2-.1-.3-.4-.3-.5,0-.2.3-.4.4-.4,1.1-.1,2.2-.2,3.3-.2.4,0,.7.1.8.6,0,.5-.2.7-.7.7-.3,0-.5,0-.8,0,0,0,0,0,0,0Z"/>
  <path class="cls-1" d="M153.9,65.6c-.9,0-1.9,0-2.8-.1-.2,0-.5-.1-.6-.3-.1-.1-.2-.4-.1-.6,0-.1.3-.3.4-.3,1.2,0,2.4,0,3.6,0,.2,0,.6.4.6.6,0,.2-.3.5-.5.6-.1,0-.3,0-.5,0,0,0,0,0,0,0Z"/>
  <path class="cls-1" d="M111.3,68.2c0,.5,0,1.2-.1,1.9,0,.4-.2.7-.7.7-.4,0-.6-.4-.6-.8,0-1.2.1-2.3.3-3.5,0-.2.3-.4.4-.6.2.2.4.4.5.6.1.5.1,1.1.1,1.8Z"/>
  <path class="cls-1" d="M117.7,68.8c0-.5,0-1.1.2-1.7,0-.2.3-.4.5-.6.2.2.4.4.5.6.1,1,.3,2.1.3,3.1,0,.2-.3.6-.5.7-.4.2-.7-.2-.8-.5,0-.5-.1-1-.2-1.6Z"/>
  <path class="cls-1" d="M154.1,73.2c-1,0-1.9,0-2.9,0-.2,0-.4-.3-.7-.5.2-.2.3-.6.5-.6,1.1,0,2.2,0,3.3,0,.4,0,.7.4.5.8-.1.2-.4.4-.7.6,0,0,0-.2,0-.3Z"/>
  <path class="cls-1" d="M134.3,70.2c0,.4,0,.7-.2.9-.1.2-.4.6-.6.5-.3,0-.7-.3-.7-.6,0-.5,0-1.1.1-1.6,0-.2.4-.4.6-.4.2,0,.5.2.6.4.1.2,0,.5.1.7Z"/>
  <path class="cls-1" d="M133,75.6c0-.3,0-.7.2-1,0-.2.4-.4.6-.3.2,0,.4.3.5.5.1.4.1.9.1,1.4,0,.5-.2.8-.7.8-.5,0-.7-.4-.7-.8,0-.2,0-.3,0-.5,0,0,0,0,0,0Z"/>
</svg>