<?xml version="1.0" standalone="no"?>
 <!DOCTYPE svg PUBLIC "-//W3C//DTD SVG 1.1//EN" 
 "http://www.w3.org/Graphics/SVG/1.1/DTD/svg11.dtd"> 
<svg
  xmlns:svg="http://www.w3.org/2000/svg"
  xmlns="http://www.w3.org/2000/svg"
  xmlns:xlink="http://www.w3.org/1999/xlink"
  version="1.1"
  width="36.9824mm" height="19.4564mm" viewBox="0.0000 0.0000 36.9824 19.4564">
<title>SVG Image created as pipebomb-brd.svg date 2024/09/21 20:24:23 </title>
  <desc>Image generated by PCBNEW </desc>
<g style="fill:#000000; fill-opacity:1.0000;stroke:#000000; stroke-opacity:1.0000;
stroke-linecap:round; stroke-linejoin:round;"
 transform="translate(0 0) scale(1 1)">
<path style="fill:none; 
stroke:#000000; stroke-width:0.1000; stroke-opacity:1; 
stroke-linecap:round; stroke-linejoin:round;fill:none"
d="M 7.0000,5.5729
26.7000,5.5729
26.7000,13.9729
7.0000,13.9729
Z" /> 
</g>
<g style="fill:none; 
stroke:#000000; stroke-width:0.1000; stroke-opacity:1; 
stroke-linecap:round; stroke-linejoin:round;">
<path d="M16.6000 10.4729
L16.6000 10.9729
" />
<path d="M16.9000 11.2729
L17.2000 10.9729
" />
<path d="M17.2000 10.9729
L17.2000 10.4729
" />
<path d="M16.6000 10.9729
L16.9000 11.2729
" />
<path d="M16.9000 10.1729
L16.6000 10.4729
" />
<path d="M17.2000 10.4729
L16.9000 10.1729
" />
<path d="M17.2000 9.0729
L17.2000 8.5729
" />
<path d="M16.9000 8.2729
L16.6000 8.5729
" />
<path d="M17.2000 8.5729
L16.9000 8.2729
" />
<path d="M16.9000 9.3729
L17.2000 9.0729
" />
<path d="M16.6000 9.0729
L16.9000 9.3729
" />
<path d="M16.6000 8.5729
L16.6000 9.0729
" />
<path d="M20.8500 6.9729
L20.3500 6.4729
" />
<path d="M20.3500 6.4729
L19.1000 6.4729
" />
<path d="M18.6000 6.9729
L19.1000 7.4729
" />
<path d="M20.3500 7.4729
L20.8500 6.9729
" />
<path d="M19.1000 6.4729
L18.6000 6.9729
" />
<path d="M19.1000 7.4729
L20.3500 7.4729
" />
<path d="M21.1000 12.2229
L21.6000 11.7229
" />
<path d="M20.8500 9.7229
L20.3500 9.2229
" />
<path d="M21.1000 7.2229
L20.6000 7.7229
" />
<path d="M18.3500 7.2229
L17.8500 7.7229
" />
<path d="M20.6000 7.7229
L20.6000 8.9729
" />
<path d="M20.6000 11.7229
L21.1000 12.2229
" />
<path d="M20.3500 11.9729
L19.1000 11.9729
" />
<path d="M18.8500 10.4729
L18.3500 9.9729
" />
<path d="M17.8500 10.4729
L17.8500 11.7229
" />
<path d="M18.8500 7.7229
L18.3500 7.2229
" />
<path d="M20.3500 10.2229
L20.8500 9.7229
" />
<path d="M21.6000 10.4729
L21.1000 9.9729
" />
<path d="M17.8500 7.7229
L17.8500 8.9729
" />
<path d="M21.6000 7.7229
L21.1000 7.2229
" />
<path d="M18.8500 11.7229
L18.8500 10.4729
" />
<path d="M20.6000 10.4729
L20.6000 11.7229
" />
<path d="M18.3500 9.4729
L18.8500 8.9729
" />
<path d="M19.1000 11.9729
L18.6000 12.4729
" />
<path d="M19.1000 10.2229
L20.3500 10.2229
" />
<path d="M17.8500 8.9729
L18.3500 9.4729
" />
<path d="M21.1000 9.4729
L21.6000 8.9729
" />
<path d="M20.8500 12.4729
L20.3500 11.9729
" />
<path d="M18.3500 9.9729
L17.8500 10.4729
" />
<path d="M18.6000 9.7229
L19.1000 10.2229
" />
<path d="M19.1000 9.2229
L18.6000 9.7229
" />
<path d="M19.1000 12.9729
L20.3500 12.9729
" />
<path d="M18.8500 8.9729
L18.8500 7.7229
" />
<path d="M20.3500 9.2229
L19.1000 9.2229
" />
<path d="M20.3500 12.9729
L20.8500 12.4729
" />
<path d="M20.6000 8.9729
L21.1000 9.4729
" />
<path d="M18.6000 12.4729
L19.1000 12.9729
" />
<path d="M21.6000 11.7229
L21.6000 10.4729
" />
<path d="M21.1000 9.9729
L20.6000 10.4729
" />
<path d="M21.6000 8.9729
L21.6000 7.7229
" />
<path d="M17.8500 11.7229
L18.3500 12.2229
" />
<path d="M18.3500 12.2229
L18.8500 11.7229
" />
<path d="M24.3500 7.4729
L24.8500 6.9729
" />
<path d="M22.6000 6.9729
L23.1000 7.4729
" />
<path d="M23.1000 6.4729
L22.6000 6.9729
" />
<path d="M24.8500 6.9729
L24.3500 6.4729
" />
<path d="M23.1000 7.4729
L24.3500 7.4729
" />
<path d="M24.3500 6.4729
L23.1000 6.4729
" />
<path d="M24.3500 12.9729
L24.8500 12.4729
" />
<path d="M25.1000 9.4729
L25.6000 8.9729
" />
<path d="M21.8500 7.7229
L21.8500 8.9729
" />
<path d="M24.6000 7.7229
L24.6000 8.9729
" />
<path d="M23.1000 9.2229
L22.6000 9.7229
" />
<path d="M24.8500 9.7229
L24.3500 9.2229
" />
<path d="M25.6000 7.7229
L25.1000 7.2229
" />
<path d="M23.1000 11.9729
L22.6000 12.4729
" />
<path d="M24.3500 11.9729
L23.1000 11.9729
" />
<path d="M22.6000 12.4729
L23.1000 12.9729
" />
<path d="M22.6000 9.7229
L23.1000 10.2229
" />
<path d="M23.1000 10.2229
L24.3500 10.2229
" />
<path d="M22.8500 8.9729
L22.8500 7.7229
" />
<path d="M22.3500 9.4729
L22.8500 8.9729
" />
<path d="M24.3500 10.2229
L24.8500 9.7229
" />
<path d="M22.3500 12.2229
L22.8500 11.7229
" />
<path d="M24.6000 8.9729
L25.1000 9.4729
" />
<path d="M24.6000 11.7229
L25.1000 12.2229
" />
<path d="M25.1000 7.2229
L24.6000 7.7229
" />
<path d="M22.3500 7.2229
L21.8500 7.7229
" />
<path d="M25.6000 11.7229
L25.6000 10.4729
" />
<path d="M25.1000 12.2229
L25.6000 11.7229
" />
<path d="M24.6000 10.4729
L24.6000 11.7229
" />
<path d="M22.8500 11.7229
L22.8500 10.4729
" />
<path d="M25.6000 10.4729
L25.1000 9.9729
" />
<path d="M23.1000 12.9729
L24.3500 12.9729
" />
<path d="M21.8500 10.4729
L21.8500 11.7229
" />
<path d="M21.8500 8.9729
L22.3500 9.4729
" />
<path d="M24.3500 9.2229
L23.1000 9.2229
" />
<path d="M21.8500 11.7229
L22.3500 12.2229
" />
<path d="M22.8500 7.7229
L22.3500 7.2229
" />
<path d="M25.6000 8.9729
L25.6000 7.7229
" />
<path d="M24.8500 12.4729
L24.3500 11.9729
" />
<path d="M25.1000 9.9729
L24.6000 10.4729
" />
<path d="M22.8500 10.4729
L22.3500 9.9729
" />
<path d="M22.3500 9.9729
L21.8500 10.4729
" />
<path d="M15.2500 6.9729
L14.7500 6.4729
" />
<path d="M13.0000 6.9729
L13.5000 7.4729
" />
<path d="M14.7500 6.4729
L13.5000 6.4729
" />
<path d="M13.5000 6.4729
L13.0000 6.9729
" />
<path d="M14.7500 7.4729
L15.2500 6.9729
" />
<path d="M13.5000 7.4729
L14.7500 7.4729
" />
<path d="M13.5000 10.2229
L14.7500 10.2229
" />
<path d="M15.5000 12.2229
L16.0000 11.7229
" />
<path d="M15.2500 9.7229
L14.7500 9.2229
" />
<path d="M15.5000 7.2229
L15.0000 7.7229
" />
<path d="M12.7500 7.2229
L12.2500 7.7229
" />
<path d="M15.0000 7.7229
L15.0000 8.9729
" />
<path d="M15.0000 11.7229
L15.5000 12.2229
" />
<path d="M14.7500 11.9729
L13.5000 11.9729
" />
<path d="M13.2500 10.4729
L12.7500 9.9729
" />
<path d="M13.5000 9.2229
L13.0000 9.7229
" />
<path d="M13.2500 11.7229
L13.2500 10.4729
" />
<path d="M13.2500 7.7229
L12.7500 7.2229
" />
<path d="M16.0000 10.4729
L15.5000 9.9729
" />
<path d="M16.0000 7.7229
L15.5000 7.2229
" />
<path d="M13.0000 12.4729
L13.5000 12.9729
" />
<path d="M15.0000 10.4729
L15.0000 11.7229
" />
<path d="M13.5000 11.9729
L13.0000 12.4729
" />
<path d="M15.5000 9.4729
L16.0000 8.9729
" />
<path d="M14.7500 12.9729
L15.2500 12.4729
" />
<path d="M12.7500 9.9729
L12.2500 10.4729
" />
<path d="M12.7500 12.2229
L13.2500 11.7229
" />
<path d="M13.5000 12.9729
L14.7500 12.9729
" />
<path d="M13.2500 8.9729
L13.2500 7.7229
" />
<path d="M14.7500 9.2229
L13.5000 9.2229
" />
<path d="M15.0000 8.9729
L15.5000 9.4729
" />
<path d="M16.0000 11.7229
L16.0000 10.4729
" />
<path d="M13.0000 9.7229
L13.5000 10.2229
" />
<path d="M15.5000 9.9729
L15.0000 10.4729
" />
<path d="M16.0000 8.9729
L16.0000 7.7229
" />
<path d="M12.2500 11.7229
L12.7500 12.2229
" />
<path d="M12.7500 9.4729
L13.2500 8.9729
" />
<path d="M12.2500 10.4729
L12.2500 11.7229
" />
<path d="M14.7500 10.2229
L15.2500 9.7229
" />
<path d="M12.2500 7.7229
L12.2500 8.9729
" />
<path d="M12.2500 8.9729
L12.7500 9.4729
" />
<path d="M15.2500 12.4729
L14.7500 11.9729
" />
<path d="M11.2500 12.4729
L10.7500 11.9729
" />
<path d="M8.7500 12.2229
L9.2500 11.7229
" />
<path d="M11.5000 9.9729
L11.0000 10.4729
" />
<path d="M8.7500 9.9729
L8.2500 10.4729
" />
<path d="M11.0000 10.4729
L11.0000 11.7229
" />
<path d="M9.0000 12.4729
L9.5000 12.9729
" />
<path d="M9.5000 12.9729
L10.7500 12.9729
" />
<path d="M8.2500 11.7229
L8.7500 12.2229
" />
<path d="M10.7500 11.9729
L9.5000 11.9729
" />
<path d="M9.2500 11.7229
L9.2500 10.4729
" />
<path d="M8.2500 10.4729
L8.2500 11.7229
" />
<path d="M12.0000 11.7229
L12.0000 10.4729
" />
<path d="M12.0000 10.4729
L11.5000 9.9729
" />
<path d="M9.2500 10.4729
L8.7500 9.9729
" />
<path d="M10.7500 12.9729
L11.2500 12.4729
" />
<path d="M11.5000 12.2229
L12.0000 11.7229
" />
<path d="M9.5000 11.9729
L9.0000 12.4729
" />
<path d="M11.0000 11.7229
L11.5000 12.2229
" />
<path d="M11.2500 9.7229
L10.7500 9.2229
" />
<path d="M9.0000 9.7229
L9.5000 10.2229
" />
<path d="M10.7500 9.2229
L9.5000 9.2229
" />
<path d="M10.7500 10.2229
L11.2500 9.7229
" />
<path d="M9.5000 9.2229
L9.0000 9.7229
" />
<path d="M9.5000 10.2229
L10.7500 10.2229
" />
<path d="M11.5000 7.2229
L11.0000 7.7229
" />
<path d="M11.5000 9.4729
L12.0000 8.9729
" />
<path d="M11.0000 7.7229
L11.0000 8.9729
" />
<path d="M12.0000 7.7229
L11.5000 7.2229
" />
<path d="M11.0000 8.9729
L11.5000 9.4729
" />
<path d="M12.0000 8.9729
L12.0000 7.7229
" />
<path d="M8.7500 7.2229
L8.2500 7.7229
" />
<path d="M8.7500 9.4729
L9.2500 8.9729
" />
<path d="M8.2500 7.7229
L8.2500 8.9729
" />
<path d="M9.2500 7.7229
L8.7500 7.2229
" />
<path d="M8.2500 8.9729
L8.7500 9.4729
" />
<path d="M9.2500 8.9729
L9.2500 7.7229
" />
<path d="M9.0000 6.9729
L9.5000 7.4729
" />
<path d="M9.5000 7.4729
L10.7500 7.4729
" />
<path d="M9.5000 6.4729
L9.0000 6.9729
" />
<path d="M10.7500 6.4729
L9.5000 6.4729
" />
<path d="M11.2500 6.9729
L10.7500 6.4729
" />
<path d="M10.7500 7.4729
L11.2500 6.9729
" />
</g> 
</svg>
