<?xml version="1.0" standalone="no"?>
 <!DOCTYPE svg PUBLIC "-//W3C//DTD SVG 1.1//EN" 
 "http://www.w3.org/Graphics/SVG/1.1/DTD/svg11.dtd"> 
<svg
  xmlns:svg="http://www.w3.org/2000/svg"
  xmlns="http://www.w3.org/2000/svg"
  xmlns:xlink="http://www.w3.org/1999/xlink"
  version="1.1"
  width="45.3136mm" height="60.6552mm" viewBox="0.0000 0.0000 45.3136 60.6552">
<title>SVG Image created as pipebomb-brd.svg date 2024/06/16 00:44:17 </title>
  <desc>Image generated by PCBNEW </desc>
<g style="fill:#000000; fill-opacity:1.0000;stroke:#000000; stroke-opacity:1.0000;
stroke-linecap:round; stroke-linejoin:round;"
 transform="translate(0 0) scale(1 1)">
</g>
<g style="fill:none; 
stroke:#E8B2A7; stroke-width:0.1500; stroke-opacity:1; 
stroke-linecap:round; stroke-linejoin:round;">
<g transform="rotate(-90.000000 20.0350 32.4982)">
<text x="20.0350" y="32.9982"
transform="scale(-1 1) translate(-40.070000 0)"
textLength="4.5357" font-size="1.3333" lengthAdjust="spacingAndGlyphs"
text-anchor="middle" opacity="0">REF**</text>
</g>
<g class="stroked-text"><desc>REF**</desc>
<path d="M20.4898 31.1649
L20.0136 30.8316
" />
<path d="M20.4898 30.5935
L19.4898 30.5935
" />
<path d="M19.4898 30.5935
L19.4898 30.9744
" />
<path d="M19.4898 30.9744
L19.5374 31.0697
" />
<path d="M19.5374 31.0697
L19.5851 31.1173
" />
<path d="M19.5851 31.1173
L19.6803 31.1649
" />
<path d="M19.6803 31.1649
L19.8232 31.1649
" />
<path d="M19.8232 31.1649
L19.9184 31.1173
" />
<path d="M19.9184 31.1173
L19.9660 31.0697
" />
<path d="M19.9660 31.0697
L20.0136 30.9744
" />
<path d="M20.0136 30.9744
L20.0136 30.5935
" />
<path d="M19.9660 31.5935
L19.9660 31.9268
" />
<path d="M20.4898 32.0697
L20.4898 31.5935
" />
<path d="M20.4898 31.5935
L19.4898 31.5935
" />
<path d="M19.4898 31.5935
L19.4898 32.0697
" />
<path d="M19.9660 32.8316
L19.9660 32.4982
" />
<path d="M20.4898 32.4982
L19.4898 32.4982
" />
<path d="M19.4898 32.4982
L19.4898 32.9744
" />
<path d="M19.4898 33.4982
L19.7279 33.4982
" />
<path d="M19.6327 33.2602
L19.7279 33.4982
" />
<path d="M19.7279 33.4982
L19.6327 33.7363
" />
<path d="M19.9184 33.3554
L19.7279 33.4982
" />
<path d="M19.7279 33.4982
L19.9184 33.6411
" />
<path d="M19.4898 34.2602
L19.7279 34.2602
" />
<path d="M19.6327 34.0221
L19.7279 34.2602
" />
<path d="M19.7279 34.2602
L19.6327 34.4982
" />
<path d="M19.9184 34.1173
L19.7279 34.2602
" />
<path d="M19.7279 34.2602
L19.9184 34.4030
" />
</g></g>
<g style="fill:none; 
stroke:#E8B2A7; stroke-width:0.1200; stroke-opacity:1; 
stroke-linecap:round; stroke-linejoin:round;">
<path d="M3.4050 29.7682
L3.4050 37.4483
" />
<path d="M6.0650 27.1683
L4.7350 27.1683
" />
<path d="M6.0650 28.4982
L6.0650 27.1683
" />
<path d="M6.0650 29.7682
L3.4050 29.7682
" />
<path d="M6.0650 29.7682
L6.0650 37.4483
" />
<path d="M6.0650 37.4483
L3.4050 37.4483
" />
<path d="M12.4500 30.2982
L12.4500 32.4982
" />
<path d="M12.4500 34.6983
L12.4500 32.4982
" />
<path d="M19.2200 30.2982
L19.2200 32.4982
" />
<path d="M19.2200 34.6983
L19.2200 32.4982
" />
<path style="fill:#E8B2A7; fill-opacity:1.0000; 
stroke:#E8B2A7; stroke-width:0.1200; stroke-opacity:1; 
stroke-linecap:round; stroke-linejoin:round;fill-rule:evenodd;"
d="M 19.0000,36.6882
18.5200,36.6882
18.7600,36.3582
Z" /> 
</g>
<g style="fill:none; 
stroke:#E8B2A7; stroke-width:0.1200; stroke-opacity:1; 
stroke-linecap:round; stroke-linejoin:round;">
<path d="M3.2200 14.7683
L3.2200 22.4482
" />
<path d="M5.8800 12.1682
L4.5500 12.1682
" />
<path d="M5.8800 13.4982
L5.8800 12.1682
" />
<path d="M5.8800 14.7683
L3.2200 14.7683
" />
<path d="M5.8800 14.7683
L5.8800 22.4482
" />
<path d="M5.8800 22.4482
L3.2200 22.4482
" />
</g>
<g style="fill:none; 
stroke:#FFFFFF; stroke-width:0.5000; stroke-opacity:1; 
stroke-linecap:round; stroke-linejoin:round;">
<path d="M13.9500 18.5983
L13.9500 17.5983
" />
<path d="M9.5500 18.5983
L9.5500 17.5983
" />
<path d="M8.6500 19.4982
L7.6500 19.4982
" />
<path d="M11.1500 18.5983
L11.1500 17.5983
" />
<path d="M17.1500 18.5983
L17.1500 17.5983
" />
<path d="M19.0500 13.8982
L18.0500 13.8982
" />
<path d="M23.2500 16.6982
L22.2500 16.6982
" />
<path d="M21.3500 15.7982
L21.3500 14.7982
" />
<path d="M19.0500 19.4982
L18.0500 19.4982
" />
<path d="M6.7500 18.5983
L6.7500 17.5983
" />
<path d="M6.7500 15.7982
L6.7500 14.7982
" />
<path d="M23.2500 13.8982
L22.2500 13.8982
" />
<path d="M24.1500 15.7982
L24.1500 14.7982
" />
<path d="M24.1500 18.5983
L24.1500 17.5983
" />
<path d="M19.9500 18.5983
L19.9500 17.5983
" />
<path d="M15.5500 18.2982
L15.5500 17.2982
" />
<path d="M19.9500 15.7982
L19.9500 14.7982
" />
<path d="M21.3500 18.5983
L21.3500 17.5983
" />
<path d="M17.1500 15.7982
L17.1500 14.7982
" />
<path d="M23.2500 19.4982
L22.2500 19.4982
" />
<path d="M13.0500 19.4982
L12.0500 19.4982
" />
<path d="M19.0500 16.6982
L18.0500 16.6982
" />
<path d="M9.5500 15.7982
L9.5500 14.7982
" />
<path d="M11.1500 15.7982
L11.1500 14.7982
" />
<path d="M8.6500 16.6982
L7.6500 16.6982
" />
<path d="M13.0500 16.6982
L12.0500 16.6982
" />
<path d="M8.6500 13.8982
L7.6500 13.8982
" />
<path d="M15.5500 15.9982
L15.5500 14.9982
" />
</g>
<g style="fill:#FFFFFF; fill-opacity:1.0000; stroke:none;">
<circle cx="11.7400" cy="55.7522" r="0.5000" /> 
</g>
<g style="fill:#FFFFFF; fill-opacity:1.0000; stroke:none;">
<circle cx="14.2800" cy="55.2522" r="0.5000" /> 
</g>
<g style="fill:#FFFFFF; fill-opacity:1.0000; stroke:none;">
<circle cx="16.8200" cy="55.7522" r="0.5000" /> 
</g>
<g style="fill:#FFFFFF; fill-opacity:1.0000; stroke:none;">
<circle cx="19.3600" cy="55.2522" r="0.5000" /> 
</g>
<g style="fill:none; 
stroke:#FFFFFF; stroke-width:0.5000; stroke-opacity:1; 
stroke-linecap:round; stroke-linejoin:round;">
<path d="M13.0500 13.8982
L12.0500 13.8982
" />
<path d="M13.9500 15.7982
L13.9500 14.7982
" />
</g>
<g style="fill:#FFFFFF; fill-opacity:1.0000; stroke:none;">
<circle cx="4.7350" cy="28.4982" r="0.5000" /> 
</g>
<g style="fill:#FFFFFF; fill-opacity:1.0000; stroke:none;">
<circle cx="4.7350" cy="31.0382" r="0.5000" /> 
</g>
<g style="fill:#FFFFFF; fill-opacity:1.0000; stroke:none;">
<circle cx="4.7350" cy="33.5782" r="0.5000" /> 
</g>
<g style="fill:#FFFFFF; fill-opacity:1.0000; stroke:none;">
<circle cx="4.7350" cy="36.1182" r="0.5000" /> 
</g>
<g style="fill:#FFFFFF; fill-opacity:1.0000; stroke:none;">
<circle cx="4.5500" cy="13.4982" r="0.5000" /> 
</g>
<g style="fill:#FFFFFF; fill-opacity:1.0000; stroke:none;">
<circle cx="4.5500" cy="16.0382" r="0.5000" /> 
</g>
<g style="fill:#FFFFFF; fill-opacity:1.0000; stroke:none;">
<circle cx="4.5500" cy="18.5783" r="0.5000" /> 
</g>
<g style="fill:#FFFFFF; fill-opacity:1.0000; stroke:none;">
<circle cx="4.5500" cy="21.1182" r="0.5000" /> 
<path style="fill:#C83434; fill-opacity:1.0000; stroke:none;fill-rule:evenodd;"
d="M 14.1625,31.5782
14.1061,31.5670
14.0582,31.5350
14.0262,31.4872
14.0150,31.4307
14.0150,31.1357
14.0262,31.0793
14.0582,31.0315
14.1061,30.9995
14.1625,30.9882
14.5075,30.9882
14.5639,30.9995
14.6118,31.0315
14.6438,31.0793
14.6550,31.1357
14.6550,31.4307
14.6438,31.4872
14.6118,31.5350
14.5639,31.5670
14.5075,31.5782
Z" /> 
<path style="fill:#C83434; fill-opacity:1.0000; stroke:none;fill-rule:evenodd;"
d="M 14.1625,30.6082
14.1061,30.5970
14.0582,30.5650
14.0262,30.5172
14.0150,30.4607
14.0150,30.1657
14.0262,30.1093
14.0582,30.0615
14.1061,30.0295
14.1625,30.0182
14.5075,30.0182
14.5639,30.0295
14.6118,30.0615
14.6438,30.1093
14.6550,30.1657
14.6550,30.4607
14.6438,30.5172
14.6118,30.5650
14.5639,30.5970
14.5075,30.6082
Z" /> 
<path style="fill:#C83434; fill-opacity:1.0000; stroke:none;fill-rule:evenodd;"
d="M 20.1625,31.5782
20.1061,31.5670
20.0582,31.5350
20.0262,31.4872
20.0150,31.4307
20.0150,31.1357
20.0262,31.0793
20.0582,31.0315
20.1061,30.9995
20.1625,30.9882
20.5075,30.9882
20.5639,30.9995
20.6118,31.0315
20.6438,31.0793
20.6550,31.1357
20.6550,31.4307
20.6438,31.4872
20.6118,31.5350
20.5639,31.5670
20.5075,31.5782
Z" /> 
<path style="fill:#C83434; fill-opacity:1.0000; stroke:none;fill-rule:evenodd;"
d="M 20.1625,30.6082
20.1061,30.5970
20.0582,30.5650
20.0262,30.5172
20.0150,30.4607
20.0150,30.1657
20.0262,30.1093
20.0582,30.0615
20.1061,30.0295
20.1625,30.0182
20.5075,30.0182
20.5639,30.0295
20.6118,30.0615
20.6438,30.1093
20.6550,30.1657
20.6550,30.4607
20.6438,30.5172
20.6118,30.5650
20.5639,30.5970
20.5075,30.6082
Z" /> 
<path style="fill:#C83434; fill-opacity:1.0000; stroke:none;fill-rule:evenodd;"
d="M 7.4225,32.8182
7.4789,32.8295
7.5268,32.8615
7.5588,32.9093
7.5700,32.9657
7.5700,33.2608
7.5588,33.3172
7.5268,33.3650
7.4789,33.3970
7.4225,33.4082
7.0775,33.4082
7.0211,33.3970
6.9732,33.3650
6.9412,33.3172
6.9300,33.2608
6.9300,32.9657
6.9412,32.9093
6.9732,32.8615
7.0211,32.8295
7.0775,32.8182
Z" /> 
<path style="fill:#C83434; fill-opacity:1.0000; stroke:none;fill-rule:evenodd;"
d="M 7.4225,33.7882
7.4789,33.7995
7.5268,33.8315
7.5588,33.8793
7.5700,33.9357
7.5700,34.2308
7.5588,34.2872
7.5268,34.3350
7.4789,34.3670
7.4225,34.3783
7.0775,34.3783
7.0211,34.3670
6.9732,34.3350
6.9412,34.2872
6.9300,34.2308
6.9300,33.9357
6.9412,33.8793
6.9732,33.8315
7.0211,33.7995
7.0775,33.7882
Z" /> 
<path style="fill:#C83434; fill-opacity:1.0000; stroke:none;fill-rule:evenodd;"
d="M 7.0775,31.5782
7.0211,31.5670
6.9732,31.5350
6.9412,31.4872
6.9300,31.4307
6.9300,31.1357
6.9412,31.0793
6.9732,31.0315
7.0211,30.9995
7.0775,30.9882
7.4225,30.9882
7.4789,30.9995
7.5268,31.0315
7.5588,31.0793
7.5700,31.1357
7.5700,31.4307
7.5588,31.4872
7.5268,31.5350
7.4789,31.5670
7.4225,31.5782
Z" /> 
<path style="fill:#C83434; fill-opacity:1.0000; stroke:none;fill-rule:evenodd;"
d="M 7.0775,30.6082
7.0211,30.5970
6.9732,30.5650
6.9412,30.5172
6.9300,30.4607
6.9300,30.1657
6.9412,30.1093
6.9732,30.0615
7.0211,30.0295
7.0775,30.0182
7.4225,30.0182
7.4789,30.0295
7.5268,30.0615
7.5588,30.1093
7.5700,30.1657
7.5700,30.4607
7.5588,30.5172
7.5268,30.5650
7.4789,30.5970
7.4225,30.6082
Z" /> 
</g>
<g style="fill:none; 
stroke:#C83434; stroke-width:1.0000; stroke-opacity:1; 
stroke-linecap:round; stroke-linejoin:round;">
<path d="M13.9500 18.5983
L13.9500 17.5983
" />
<path style="fill:#C83434; fill-opacity:1.0000; stroke:none;fill-rule:evenodd;"
d="M 9.4300,35.1707
9.4188,35.2272
9.3868,35.2750
9.3389,35.3070
9.2825,35.3182
8.9875,35.3182
8.9311,35.3070
8.8832,35.2750
8.8512,35.2272
8.8400,35.1707
8.8400,34.8257
8.8512,34.7693
8.8832,34.7215
8.9311,34.6895
8.9875,34.6782
9.2825,34.6782
9.3389,34.6895
9.3868,34.7215
9.4188,34.7693
9.4300,34.8257
Z" /> 
<path style="fill:#C83434; fill-opacity:1.0000; stroke:none;fill-rule:evenodd;"
d="M 8.4600,35.1707
8.4488,35.2272
8.4168,35.2750
8.3689,35.3070
8.3125,35.3182
8.0175,35.3182
7.9611,35.3070
7.9132,35.2750
7.8812,35.2272
7.8700,35.1707
7.8700,34.8257
7.8812,34.7693
7.9132,34.7215
7.9611,34.6895
8.0175,34.6782
8.3125,34.6782
8.3689,34.6895
8.4168,34.7215
8.4488,34.7693
8.4600,34.8257
Z" /> 
</g>
<g style="fill:none; 
stroke:#C83434; stroke-width:1.0000; stroke-opacity:1; 
stroke-linecap:round; stroke-linejoin:round;">
<path d="M9.5500 18.5983
L9.5500 17.5983
" />
<path style="fill:#C83434; fill-opacity:1.0000; stroke:none;fill-rule:evenodd;"
d="M 23.9150,32.3708
23.9038,32.4272
23.8718,32.4750
23.8239,32.5070
23.7675,32.5183
23.4725,32.5183
23.4161,32.5070
23.3682,32.4750
23.3362,32.4272
23.3250,32.3708
23.3250,32.0257
23.3362,31.9693
23.3682,31.9215
23.4161,31.8895
23.4725,31.8782
23.7675,31.8782
23.8239,31.8895
23.8718,31.9215
23.9038,31.9693
23.9150,32.0257
Z" /> 
<path style="fill:#C83434; fill-opacity:1.0000; stroke:none;fill-rule:evenodd;"
d="M 22.9450,32.3708
22.9338,32.4272
22.9018,32.4750
22.8539,32.5070
22.7975,32.5183
22.5025,32.5183
22.4461,32.5070
22.3982,32.4750
22.3662,32.4272
22.3550,32.3708
22.3550,32.0257
22.3662,31.9693
22.3982,31.9215
22.4461,31.8895
22.5025,31.8782
22.7975,31.8782
22.8539,31.8895
22.9018,31.9215
22.9338,31.9693
22.9450,32.0257
Z" /> 
</g>
<g style="fill:none; 
stroke:#C83434; stroke-width:1.0000; stroke-opacity:1; 
stroke-linecap:round; stroke-linejoin:round;">
<path d="M8.6500 19.4982
L7.6500 19.4982
" />
<path style="fill:#C83434; fill-opacity:1.0000; stroke:none;fill-rule:evenodd;"
d="M 19.7150,35.1707
19.7038,35.2272
19.6718,35.2750
19.6239,35.3070
19.5675,35.3182
19.2725,35.3182
19.2161,35.3070
19.1682,35.2750
19.1362,35.2272
19.1250,35.1707
19.1250,34.8257
19.1362,34.7693
19.1682,34.7215
19.2161,34.6895
19.2725,34.6782
19.5675,34.6782
19.6239,34.6895
19.6718,34.7215
19.7038,34.7693
19.7150,34.8257
Z" /> 
<path style="fill:#C83434; fill-opacity:1.0000; stroke:none;fill-rule:evenodd;"
d="M 18.7450,35.1707
18.7338,35.2272
18.7018,35.2750
18.6539,35.3070
18.5975,35.3182
18.3025,35.3182
18.2461,35.3070
18.1982,35.2750
18.1662,35.2272
18.1550,35.1707
18.1550,34.8257
18.1662,34.7693
18.1982,34.7215
18.2461,34.6895
18.3025,34.6782
18.5975,34.6782
18.6539,34.6895
18.7018,34.7215
18.7338,34.7693
18.7450,34.8257
Z" /> 
</g>
<g style="fill:none; 
stroke:#C83434; stroke-width:1.0000; stroke-opacity:1; 
stroke-linecap:round; stroke-linejoin:round;">
<path d="M11.1500 18.5983
L11.1500 17.5983
" />
<path style="fill:#C83434; fill-opacity:1.0000; stroke:none;fill-rule:evenodd;"
d="M 14.1625,34.3783
14.1061,34.3670
14.0582,34.3350
14.0262,34.2872
14.0150,34.2308
14.0150,33.9357
14.0262,33.8793
14.0582,33.8315
14.1061,33.7995
14.1625,33.7882
14.5075,33.7882
14.5639,33.7995
14.6118,33.8315
14.6438,33.8793
14.6550,33.9357
14.6550,34.2308
14.6438,34.2872
14.6118,34.3350
14.5639,34.3670
14.5075,34.3783
Z" /> 
<path style="fill:#C83434; fill-opacity:1.0000; stroke:none;fill-rule:evenodd;"
d="M 14.1625,33.4082
14.1061,33.3970
14.0582,33.3650
14.0262,33.3172
14.0150,33.2608
14.0150,32.9657
14.0262,32.9093
14.0582,32.8615
14.1061,32.8295
14.1625,32.8182
14.5075,32.8182
14.5639,32.8295
14.6118,32.8615
14.6438,32.9093
14.6550,32.9657
14.6550,33.2608
14.6438,33.3172
14.6118,33.3650
14.5639,33.3970
14.5075,33.4082
Z" /> 
</g>
<g style="fill:none; 
stroke:#C83434; stroke-width:1.0000; stroke-opacity:1; 
stroke-linecap:round; stroke-linejoin:round;">
<path d="M17.1500 18.5983
L17.1500 17.5983
" />
<path d="M19.0500 13.8982
L18.0500 13.8982
" />
<path d="M23.2500 16.6982
L22.2500 16.6982
" />
<path d="M21.3500 15.7982
L21.3500 14.7982
" />
<path style="fill:#C83434; fill-opacity:1.0000; stroke:none;fill-rule:evenodd;"
d="M 10.2225,30.0182
10.2789,30.0295
10.3268,30.0615
10.3588,30.1093
10.3700,30.1657
10.3700,30.4607
10.3588,30.5172
10.3268,30.5650
10.2789,30.5970
10.2225,30.6082
9.8775,30.6082
9.8211,30.5970
9.7732,30.5650
9.7412,30.5172
9.7300,30.4607
9.7300,30.1657
9.7412,30.1093
9.7732,30.0615
9.8211,30.0295
9.8775,30.0182
Z" /> 
<path style="fill:#C83434; fill-opacity:1.0000; stroke:none;fill-rule:evenodd;"
d="M 10.2225,30.9882
10.2789,30.9995
10.3268,31.0315
10.3588,31.0793
10.3700,31.1357
10.3700,31.4307
10.3588,31.4872
10.3268,31.5350
10.2789,31.5670
10.2225,31.5782
9.8775,31.5782
9.8211,31.5670
9.7732,31.5350
9.7412,31.4872
9.7300,31.4307
9.7300,31.1357
9.7412,31.0793
9.7732,31.0315
9.8211,30.9995
9.8775,30.9882
Z" /> 
</g>
<g style="fill:none; 
stroke:#C83434; stroke-width:1.0000; stroke-opacity:1; 
stroke-linecap:round; stroke-linejoin:round;">
<path d="M19.0500 19.4982
L18.0500 19.4982
" />
<path d="M6.7500 18.5983
L6.7500 17.5983
" />
<path d="M6.7500 15.7982
L6.7500 14.7982
" />
<path d="M23.2500 13.8982
L22.2500 13.8982
" />
<path d="M24.1500 15.7982
L24.1500 14.7982
" />
<path d="M24.1500 18.5983
L24.1500 17.5983
" />
<path style="fill:#C83434; fill-opacity:1.0000; stroke:none;fill-rule:evenodd;"
d="M 13.7150,29.5708
13.7038,29.6272
13.6718,29.6750
13.6239,29.7070
13.5675,29.7182
13.2725,29.7182
13.2161,29.7070
13.1682,29.6750
13.1362,29.6272
13.1250,29.5708
13.1250,29.2257
13.1362,29.1693
13.1682,29.1215
13.2161,29.0895
13.2725,29.0782
13.5675,29.0782
13.6239,29.0895
13.6718,29.1215
13.7038,29.1693
13.7150,29.2257
Z" /> 
<path style="fill:#C83434; fill-opacity:1.0000; stroke:none;fill-rule:evenodd;"
d="M 12.7450,29.5708
12.7338,29.6272
12.7018,29.6750
12.6539,29.7070
12.5975,29.7182
12.3025,29.7182
12.2461,29.7070
12.1982,29.6750
12.1662,29.6272
12.1550,29.5708
12.1550,29.2257
12.1662,29.1693
12.1982,29.1215
12.2461,29.0895
12.3025,29.0782
12.5975,29.0782
12.6539,29.0895
12.7018,29.1215
12.7338,29.1693
12.7450,29.2257
Z" /> 
<path style="fill:#C83434; fill-opacity:1.0000; stroke:none;fill-rule:evenodd;"
d="M 19.7150,29.5708
19.7038,29.6272
19.6718,29.6750
19.6239,29.7070
19.5675,29.7182
19.2725,29.7182
19.2161,29.7070
19.1682,29.6750
19.1362,29.6272
19.1250,29.5708
19.1250,29.2257
19.1362,29.1693
19.1682,29.1215
19.2161,29.0895
19.2725,29.0782
19.5675,29.0782
19.6239,29.0895
19.6718,29.1215
19.7038,29.1693
19.7150,29.2257
Z" /> 
<path style="fill:#C83434; fill-opacity:1.0000; stroke:none;fill-rule:evenodd;"
d="M 18.7450,29.5708
18.7338,29.6272
18.7018,29.6750
18.6539,29.7070
18.5975,29.7182
18.3025,29.7182
18.2461,29.7070
18.1982,29.6750
18.1662,29.6272
18.1550,29.5708
18.1550,29.2257
18.1662,29.1693
18.1982,29.1215
18.2461,29.0895
18.3025,29.0782
18.5975,29.0782
18.6539,29.0895
18.7018,29.1215
18.7338,29.1693
18.7450,29.2257
Z" /> 
<path style="fill:#C83434; fill-opacity:1.0000; stroke:none;fill-rule:evenodd;"
d="M 23.9150,35.1707
23.9038,35.2272
23.8718,35.2750
23.8239,35.3070
23.7675,35.3182
23.4725,35.3182
23.4161,35.3070
23.3682,35.2750
23.3362,35.2272
23.3250,35.1707
23.3250,34.8257
23.3362,34.7693
23.3682,34.7215
23.4161,34.6895
23.4725,34.6782
23.7675,34.6782
23.8239,34.6895
23.8718,34.7215
23.9038,34.7693
23.9150,34.8257
Z" /> 
<path style="fill:#C83434; fill-opacity:1.0000; stroke:none;fill-rule:evenodd;"
d="M 22.9450,35.1707
22.9338,35.2272
22.9018,35.2750
22.8539,35.3070
22.7975,35.3182
22.5025,35.3182
22.4461,35.3070
22.3982,35.2750
22.3662,35.2272
22.3550,35.1707
22.3550,34.8257
22.3662,34.7693
22.3982,34.7215
22.4461,34.6895
22.5025,34.6782
22.7975,34.6782
22.8539,34.6895
22.9018,34.7215
22.9338,34.7693
22.9450,34.8257
Z" /> 
<path style="fill:#C83434; fill-opacity:1.0000; stroke:none;fill-rule:evenodd;"
d="M 20.1625,34.3783
20.1061,34.3670
20.0582,34.3350
20.0262,34.2872
20.0150,34.2308
20.0150,33.9357
20.0262,33.8793
20.0582,33.8315
20.1061,33.7995
20.1625,33.7882
20.5075,33.7882
20.5639,33.7995
20.6118,33.8315
20.6438,33.8793
20.6550,33.9357
20.6550,34.2308
20.6438,34.2872
20.6118,34.3350
20.5639,34.3670
20.5075,34.3783
Z" /> 
<path style="fill:#C83434; fill-opacity:1.0000; stroke:none;fill-rule:evenodd;"
d="M 20.1625,33.4082
20.1061,33.3970
20.0582,33.3650
20.0262,33.3172
20.0150,33.2608
20.0150,32.9657
20.0262,32.9093
20.0582,32.8615
20.1061,32.8295
20.1625,32.8182
20.5075,32.8182
20.5639,32.8295
20.6118,32.8615
20.6438,32.9093
20.6550,32.9657
20.6550,33.2608
20.6438,33.3172
20.6118,33.3650
20.5639,33.3970
20.5075,33.4082
Z" /> 
<path style="fill:#C83434; fill-opacity:1.0000; stroke:none;fill-rule:evenodd;"
d="M 24.3625,31.5782
24.3061,31.5670
24.2582,31.5350
24.2262,31.4872
24.2150,31.4307
24.2150,31.1357
24.2262,31.0793
24.2582,31.0315
24.3061,30.9995
24.3625,30.9882
24.7075,30.9882
24.7639,30.9995
24.8118,31.0315
24.8438,31.0793
24.8550,31.1357
24.8550,31.4307
24.8438,31.4872
24.8118,31.5350
24.7639,31.5670
24.7075,31.5782
Z" /> 
<path style="fill:#C83434; fill-opacity:1.0000; stroke:none;fill-rule:evenodd;"
d="M 24.3625,30.6082
24.3061,30.5970
24.2582,30.5650
24.2262,30.5172
24.2150,30.4607
24.2150,30.1657
24.2262,30.1093
24.2582,30.0615
24.3061,30.0295
24.3625,30.0182
24.7075,30.0182
24.7639,30.0295
24.8118,30.0615
24.8438,30.1093
24.8550,30.1657
24.8550,30.4607
24.8438,30.5172
24.8118,30.5650
24.7639,30.5970
24.7075,30.6082
Z" /> 
<path style="fill:#C83434; fill-opacity:1.0000; stroke:none;fill-rule:evenodd;"
d="M 7.8700,32.0257
7.8812,31.9693
7.9132,31.9215
7.9611,31.8895
8.0175,31.8782
8.3125,31.8782
8.3689,31.8895
8.4168,31.9215
8.4488,31.9693
8.4600,32.0257
8.4600,32.3708
8.4488,32.4272
8.4168,32.4750
8.3689,32.5070
8.3125,32.5183
8.0175,32.5183
7.9611,32.5070
7.9132,32.4750
7.8812,32.4272
7.8700,32.3708
Z" /> 
<path style="fill:#C83434; fill-opacity:1.0000; stroke:none;fill-rule:evenodd;"
d="M 8.8400,32.0257
8.8512,31.9693
8.8832,31.9215
8.9311,31.8895
8.9875,31.8782
9.2825,31.8782
9.3389,31.8895
9.3868,31.9215
9.4188,31.9693
9.4300,32.0257
9.4300,32.3708
9.4188,32.4272
9.3868,32.4750
9.3389,32.5070
9.2825,32.5183
8.9875,32.5183
8.9311,32.5070
8.8832,32.4750
8.8512,32.4272
8.8400,32.3708
Z" /> 
</g>
<g style="fill:none; 
stroke:#C83434; stroke-width:1.0000; stroke-opacity:1; 
stroke-linecap:round; stroke-linejoin:round;">
<path d="M19.9500 18.5983
L19.9500 17.5983
" />
<path style="fill:#C83434; fill-opacity:1.0000; stroke:none;fill-rule:evenodd;"
d="M 13.7150,35.1707
13.7038,35.2272
13.6718,35.2750
13.6239,35.3070
13.5675,35.3182
13.2725,35.3182
13.2161,35.3070
13.1682,35.2750
13.1362,35.2272
13.1250,35.1707
13.1250,34.8257
13.1362,34.7693
13.1682,34.7215
13.2161,34.6895
13.2725,34.6782
13.5675,34.6782
13.6239,34.6895
13.6718,34.7215
13.7038,34.7693
13.7150,34.8257
Z" /> 
<path style="fill:#C83434; fill-opacity:1.0000; stroke:none;fill-rule:evenodd;"
d="M 12.7450,35.1707
12.7338,35.2272
12.7018,35.2750
12.6539,35.3070
12.5975,35.3182
12.3025,35.3182
12.2461,35.3070
12.1982,35.2750
12.1662,35.2272
12.1550,35.1707
12.1550,34.8257
12.1662,34.7693
12.1982,34.7215
12.2461,34.6895
12.3025,34.6782
12.5975,34.6782
12.6539,34.6895
12.7018,34.7215
12.7338,34.7693
12.7450,34.8257
Z" /> 
<path style="fill:#C83434; fill-opacity:1.0000; stroke:none;fill-rule:evenodd;"
d="M 13.7150,32.3708
13.7038,32.4272
13.6718,32.4750
13.6239,32.5070
13.5675,32.5183
13.2725,32.5183
13.2161,32.5070
13.1682,32.4750
13.1362,32.4272
13.1250,32.3708
13.1250,32.0257
13.1362,31.9693
13.1682,31.9215
13.2161,31.8895
13.2725,31.8782
13.5675,31.8782
13.6239,31.8895
13.6718,31.9215
13.7038,31.9693
13.7150,32.0257
Z" /> 
<path style="fill:#C83434; fill-opacity:1.0000; stroke:none;fill-rule:evenodd;"
d="M 12.7450,32.3708
12.7338,32.4272
12.7018,32.4750
12.6539,32.5070
12.5975,32.5183
12.3025,32.5183
12.2461,32.5070
12.1982,32.4750
12.1662,32.4272
12.1550,32.3708
12.1550,32.0257
12.1662,31.9693
12.1982,31.9215
12.2461,31.8895
12.3025,31.8782
12.5975,31.8782
12.6539,31.8895
12.7018,31.9215
12.7338,31.9693
12.7450,32.0257
Z" /> 
</g>
<g style="fill:none; 
stroke:#C83434; stroke-width:1.0000; stroke-opacity:1; 
stroke-linecap:round; stroke-linejoin:round;">
<path d="M15.5500 18.2982
L15.5500 17.2982
" />
<path d="M19.9500 15.7982
L19.9500 14.7982
" />
<path d="M21.3500 18.5983
L21.3500 17.5983
" />
<path d="M17.1500 15.7982
L17.1500 14.7982
" />
<path d="M23.2500 19.4982
L22.2500 19.4982
" />
<path d="M13.0500 19.4982
L12.0500 19.4982
" />
<path style="fill:#C83434; fill-opacity:1.0000; stroke:none;fill-rule:evenodd;"
d="M 17.3625,31.5782
17.3061,31.5670
17.2582,31.5350
17.2262,31.4872
17.2150,31.4307
17.2150,31.1357
17.2262,31.0793
17.2582,31.0315
17.3061,30.9995
17.3625,30.9882
17.7075,30.9882
17.7639,30.9995
17.8118,31.0315
17.8438,31.0793
17.8550,31.1357
17.8550,31.4307
17.8438,31.4872
17.8118,31.5350
17.7639,31.5670
17.7075,31.5782
Z" /> 
<path style="fill:#C83434; fill-opacity:1.0000; stroke:none;fill-rule:evenodd;"
d="M 17.3625,30.6082
17.3061,30.5970
17.2582,30.5650
17.2262,30.5172
17.2150,30.4607
17.2150,30.1657
17.2262,30.1093
17.2582,30.0615
17.3061,30.0295
17.3625,30.0182
17.7075,30.0182
17.7639,30.0295
17.8118,30.0615
17.8438,30.1093
17.8550,30.1657
17.8550,30.4607
17.8438,30.5172
17.8118,30.5650
17.7639,30.5970
17.7075,30.6082
Z" /> 
<path style="fill:#C83434; fill-opacity:1.0000; stroke:none;fill-rule:evenodd;"
d="M 19.7150,32.3708
19.7038,32.4272
19.6718,32.4750
19.6239,32.5070
19.5675,32.5183
19.2725,32.5183
19.2161,32.5070
19.1682,32.4750
19.1362,32.4272
19.1250,32.3708
19.1250,32.0257
19.1362,31.9693
19.1682,31.9215
19.2161,31.8895
19.2725,31.8782
19.5675,31.8782
19.6239,31.8895
19.6718,31.9215
19.7038,31.9693
19.7150,32.0257
Z" /> 
<path style="fill:#C83434; fill-opacity:1.0000; stroke:none;fill-rule:evenodd;"
d="M 18.7450,32.3708
18.7338,32.4272
18.7018,32.4750
18.6539,32.5070
18.5975,32.5183
18.3025,32.5183
18.2461,32.5070
18.1982,32.4750
18.1662,32.4272
18.1550,32.3708
18.1550,32.0257
18.1662,31.9693
18.1982,31.9215
18.2461,31.8895
18.3025,31.8782
18.5975,31.8782
18.6539,31.8895
18.7018,31.9215
18.7338,31.9693
18.7450,32.0257
Z" /> 
</g>
<g style="fill:none; 
stroke:#C83434; stroke-width:1.0000; stroke-opacity:1; 
stroke-linecap:round; stroke-linejoin:round;">
<path d="M19.0500 16.6982
L18.0500 16.6982
" />
<path d="M9.5500 15.7982
L9.5500 14.7982
" />
<path d="M11.1500 15.7982
L11.1500 14.7982
" />
<path d="M8.6500 16.6982
L7.6500 16.6982
" />
<path d="M13.0500 16.6982
L12.0500 16.6982
" />
<path d="M8.6500 13.8982
L7.6500 13.8982
" />
<path style="fill:#C83434; fill-opacity:1.0000; stroke:none;fill-rule:evenodd;"
d="M 15.7625,32.1782
15.7061,32.1670
15.6582,32.1350
15.6262,32.0872
15.6150,32.0307
15.6150,31.7357
15.6262,31.6793
15.6582,31.6315
15.7061,31.5995
15.7625,31.5882
16.1075,31.5882
16.1639,31.5995
16.2118,31.6315
16.2438,31.6793
16.2550,31.7357
16.2550,32.0307
16.2438,32.0872
16.2118,32.1350
16.1639,32.1670
16.1075,32.1782
Z" /> 
<path style="fill:#C83434; fill-opacity:1.0000; stroke:none;fill-rule:evenodd;"
d="M 15.7625,31.2082
15.7061,31.1970
15.6582,31.1650
15.6262,31.1172
15.6150,31.0607
15.6150,30.7657
15.6262,30.7093
15.6582,30.6615
15.7061,30.6295
15.7625,30.6182
16.1075,30.6182
16.1639,30.6295
16.2118,30.6615
16.2438,30.7093
16.2550,30.7657
16.2550,31.0607
16.2438,31.1172
16.2118,31.1650
16.1639,31.1970
16.1075,31.2082
Z" /> 
<path style="fill:#C83434; fill-opacity:1.0000; stroke:none;fill-rule:evenodd;"
d="M 24.3625,34.3783
24.3061,34.3670
24.2582,34.3350
24.2262,34.2872
24.2150,34.2308
24.2150,33.9357
24.2262,33.8793
24.2582,33.8315
24.3061,33.7995
24.3625,33.7882
24.7075,33.7882
24.7639,33.7995
24.8118,33.8315
24.8438,33.8793
24.8550,33.9357
24.8550,34.2308
24.8438,34.2872
24.8118,34.3350
24.7639,34.3670
24.7075,34.3783
Z" /> 
<path style="fill:#C83434; fill-opacity:1.0000; stroke:none;fill-rule:evenodd;"
d="M 24.3625,33.4082
24.3061,33.3970
24.2582,33.3650
24.2262,33.3172
24.2150,33.2608
24.2150,32.9657
24.2262,32.9093
24.2582,32.8615
24.3061,32.8295
24.3625,32.8182
24.7075,32.8182
24.7639,32.8295
24.8118,32.8615
24.8438,32.9093
24.8550,32.9657
24.8550,33.2608
24.8438,33.3172
24.8118,33.3650
24.7639,33.3970
24.7075,33.4082
Z" /> 
<path style="fill:#C83434; fill-opacity:1.0000; stroke:none;fill-rule:evenodd;"
d="M 21.5625,31.5782
21.5061,31.5670
21.4582,31.5350
21.4262,31.4872
21.4150,31.4307
21.4150,31.1357
21.4262,31.0793
21.4582,31.0315
21.5061,30.9995
21.5625,30.9882
21.9075,30.9882
21.9639,30.9995
22.0118,31.0315
22.0438,31.0793
22.0550,31.1357
22.0550,31.4307
22.0438,31.4872
22.0118,31.5350
21.9639,31.5670
21.9075,31.5782
Z" /> 
<path style="fill:#C83434; fill-opacity:1.0000; stroke:none;fill-rule:evenodd;"
d="M 21.5625,30.6082
21.5061,30.5970
21.4582,30.5650
21.4262,30.5172
21.4150,30.4607
21.4150,30.1657
21.4262,30.1093
21.4582,30.0615
21.5061,30.0295
21.5625,30.0182
21.9075,30.0182
21.9639,30.0295
22.0118,30.0615
22.0438,30.1093
22.0550,30.1657
22.0550,30.4607
22.0438,30.5172
22.0118,30.5650
21.9639,30.5970
21.9075,30.6082
Z" /> 
</g>
<g style="fill:none; 
stroke:#C83434; stroke-width:1.0000; stroke-opacity:1; 
stroke-linecap:round; stroke-linejoin:round;">
<path d="M15.5500 15.9982
L15.5500 14.9982
" />
<path style="fill:#C83434; fill-opacity:1.0000; stroke:none;fill-rule:evenodd;"
d="M 11.3625,34.3783
11.3061,34.3670
11.2582,34.3350
11.2262,34.2872
11.2150,34.2308
11.2150,33.9357
11.2262,33.8793
11.2582,33.8315
11.3061,33.7995
11.3625,33.7882
11.7075,33.7882
11.7639,33.7995
11.8118,33.8315
11.8438,33.8793
11.8550,33.9357
11.8550,34.2308
11.8438,34.2872
11.8118,34.3350
11.7639,34.3670
11.7075,34.3783
Z" /> 
<path style="fill:#C83434; fill-opacity:1.0000; stroke:none;fill-rule:evenodd;"
d="M 11.3625,33.4082
11.3061,33.3970
11.2582,33.3650
11.2262,33.3172
11.2150,33.2608
11.2150,32.9657
11.2262,32.9093
11.2582,32.8615
11.3061,32.8295
11.3625,32.8182
11.7075,32.8182
11.7639,32.8295
11.8118,32.8615
11.8438,32.9093
11.8550,32.9657
11.8550,33.2608
11.8438,33.3172
11.8118,33.3650
11.7639,33.3970
11.7075,33.4082
Z" /> 
<path style="fill:#C83434; fill-opacity:1.0000; stroke:none;fill-rule:evenodd;"
d="M 21.5625,34.3783
21.5061,34.3670
21.4582,34.3350
21.4262,34.2872
21.4150,34.2308
21.4150,33.9357
21.4262,33.8793
21.4582,33.8315
21.5061,33.7995
21.5625,33.7882
21.9075,33.7882
21.9639,33.7995
22.0118,33.8315
22.0438,33.8793
22.0550,33.9357
22.0550,34.2308
22.0438,34.2872
22.0118,34.3350
21.9639,34.3670
21.9075,34.3783
Z" /> 
<path style="fill:#C83434; fill-opacity:1.0000; stroke:none;fill-rule:evenodd;"
d="M 21.5625,33.4082
21.5061,33.3970
21.4582,33.3650
21.4262,33.3172
21.4150,33.2608
21.4150,32.9657
21.4262,32.9093
21.4582,32.8615
21.5061,32.8295
21.5625,32.8182
21.9075,32.8182
21.9639,32.8295
22.0118,32.8615
22.0438,32.9093
22.0550,32.9657
22.0550,33.2608
22.0438,33.3172
22.0118,33.3650
21.9639,33.3970
21.9075,33.4082
Z" /> 
<path style="fill:#C83434; fill-opacity:1.0000; stroke:none;fill-rule:evenodd;"
d="M 15.7625,34.1782
15.7061,34.1670
15.6582,34.1350
15.6262,34.0872
15.6150,34.0307
15.6150,33.7357
15.6262,33.6793
15.6582,33.6315
15.7061,33.5995
15.7625,33.5882
16.1075,33.5882
16.1639,33.5995
16.2118,33.6315
16.2438,33.6793
16.2550,33.7357
16.2550,34.0307
16.2438,34.0872
16.2118,34.1350
16.1639,34.1670
16.1075,34.1782
Z" /> 
<path style="fill:#C83434; fill-opacity:1.0000; stroke:none;fill-rule:evenodd;"
d="M 15.7625,33.2082
15.7061,33.1970
15.6582,33.1650
15.6262,33.1172
15.6150,33.0607
15.6150,32.7657
15.6262,32.7093
15.6582,32.6615
15.7061,32.6295
15.7625,32.6182
16.1075,32.6182
16.1639,32.6295
16.2118,32.6615
16.2438,32.7093
16.2550,32.7657
16.2550,33.0607
16.2438,33.1172
16.2118,33.1650
16.1639,33.1970
16.1075,33.2082
Z" /> 
<path style="fill:#C83434; fill-opacity:1.0000; stroke:none;fill-rule:evenodd;"
d="M 9.8775,34.3783
9.8211,34.3670
9.7732,34.3350
9.7412,34.2872
9.7300,34.2308
9.7300,33.9357
9.7412,33.8793
9.7732,33.8315
9.8211,33.7995
9.8775,33.7882
10.2225,33.7882
10.2789,33.7995
10.3268,33.8315
10.3588,33.8793
10.3700,33.9357
10.3700,34.2308
10.3588,34.2872
10.3268,34.3350
10.2789,34.3670
10.2225,34.3783
Z" /> 
<path style="fill:#C83434; fill-opacity:1.0000; stroke:none;fill-rule:evenodd;"
d="M 9.8775,33.4082
9.8211,33.3970
9.7732,33.3650
9.7412,33.3172
9.7300,33.2608
9.7300,32.9657
9.7412,32.9093
9.7732,32.8615
9.8211,32.8295
9.8775,32.8182
10.2225,32.8182
10.2789,32.8295
10.3268,32.8615
10.3588,32.9093
10.3700,32.9657
10.3700,33.2608
10.3588,33.3172
10.3268,33.3650
10.2789,33.3970
10.2225,33.4082
Z" /> 
<path style="fill:#C83434; fill-opacity:1.0000; stroke:none;fill-rule:evenodd;"
d="M 10.9896,55.2519
10.9900,55.2517
10.9901,55.2517
11.0088,55.0854
11.0643,54.9268
11.1536,54.7846
11.2724,54.6659
11.4146,54.5765
11.5731,54.5211
11.7400,54.5022
11.9069,54.5211
12.0654,54.5765
12.2076,54.6659
12.3264,54.7846
12.4157,54.9268
12.4712,55.0854
12.4899,55.2517
12.4900,55.2517
12.4904,55.2519
12.4905,55.2522
12.4905,55.7522
12.4904,55.7526
12.4900,55.7527
12.4899,55.7527
12.4712,55.9191
12.4157,56.0777
12.3264,56.2199
12.2076,56.3386
12.0654,56.4280
11.9069,56.4834
11.7400,56.5022
11.5731,56.4834
11.4146,56.4280
11.2724,56.3386
11.1536,56.2199
11.0643,56.0777
11.0088,55.9191
10.9901,55.7527
10.9900,55.7527
10.9896,55.7526
10.9895,55.7522
10.9895,55.2522
Z" /> 
<path style="fill:#C83434; fill-opacity:1.0000; stroke:none;fill-rule:evenodd;"
d="M 15.0304,55.7526
15.0300,55.7527
15.0299,55.7527
15.0112,55.9191
14.9557,56.0777
14.8664,56.2199
14.7476,56.3386
14.6054,56.4280
14.4469,56.4834
14.2800,56.5022
14.1131,56.4834
13.9546,56.4280
13.8124,56.3386
13.6936,56.2199
13.6043,56.0777
13.5488,55.9191
13.5301,55.7527
13.5300,55.7527
13.5296,55.7526
13.5295,55.7522
13.5295,55.2522
13.5296,55.2519
13.5300,55.2517
13.5301,55.2517
13.5488,55.0854
13.6043,54.9268
13.6936,54.7846
13.8124,54.6659
13.9546,54.5765
14.1131,54.5211
14.2800,54.5022
14.4469,54.5211
14.6054,54.5765
14.7476,54.6659
14.8664,54.7846
14.9557,54.9268
15.0112,55.0854
15.0299,55.2517
15.0300,55.2517
15.0304,55.2519
15.0305,55.2522
15.0305,55.7522
Z" /> 
<path style="fill:#C83434; fill-opacity:1.0000; stroke:none;fill-rule:evenodd;"
d="M 16.0696,55.2519
16.0700,55.2517
16.0701,55.2517
16.0888,55.0854
16.1443,54.9268
16.2336,54.7846
16.3524,54.6659
16.4946,54.5765
16.6531,54.5211
16.8200,54.5022
16.9869,54.5211
17.1454,54.5765
17.2876,54.6659
17.4064,54.7846
17.4957,54.9268
17.5512,55.0854
17.5699,55.2517
17.5700,55.2517
17.5704,55.2519
17.5705,55.2522
17.5705,55.7522
17.5704,55.7526
17.5700,55.7527
17.5699,55.7527
17.5512,55.9191
17.4957,56.0777
17.4064,56.2199
17.2876,56.3386
17.1454,56.4280
16.9869,56.4834
16.8200,56.5022
16.6531,56.4834
16.4946,56.4280
16.3524,56.3386
16.2336,56.2199
16.1443,56.0777
16.0888,55.9191
16.0701,55.7527
16.0700,55.7527
16.0696,55.7526
16.0695,55.7522
16.0695,55.2522
Z" /> 
<path style="fill:#C83434; fill-opacity:1.0000; stroke:none;fill-rule:evenodd;"
d="M 20.1104,55.7526
20.1100,55.7527
20.1099,55.7527
20.0912,55.9191
20.0357,56.0777
19.9464,56.2199
19.8276,56.3386
19.6854,56.4280
19.5269,56.4834
19.3600,56.5022
19.1931,56.4834
19.0346,56.4280
18.8924,56.3386
18.7736,56.2199
18.6843,56.0777
18.6288,55.9191
18.6101,55.7527
18.6100,55.7527
18.6096,55.7526
18.6095,55.7522
18.6095,55.2522
18.6096,55.2519
18.6100,55.2517
18.6101,55.2517
18.6288,55.0854
18.6843,54.9268
18.7736,54.7846
18.8924,54.6659
19.0346,54.5765
19.1931,54.5211
19.3600,54.5022
19.5269,54.5211
19.6854,54.5765
19.8276,54.6659
19.9464,54.7846
20.0357,54.9268
20.0912,55.0854
20.1099,55.2517
20.1100,55.2517
20.1104,55.2519
20.1105,55.2522
20.1105,55.7522
Z" /> 
<path style="fill:#C83434; fill-opacity:1.0000; stroke:none;fill-rule:evenodd;"
d="M 11.3625,31.5782
11.3061,31.5670
11.2582,31.5350
11.2262,31.4872
11.2150,31.4307
11.2150,31.1357
11.2262,31.0793
11.2582,31.0315
11.3061,30.9995
11.3625,30.9882
11.7075,30.9882
11.7639,30.9995
11.8118,31.0315
11.8438,31.0793
11.8550,31.1357
11.8550,31.4307
11.8438,31.4872
11.8118,31.5350
11.7639,31.5670
11.7075,31.5782
Z" /> 
<path style="fill:#C83434; fill-opacity:1.0000; stroke:none;fill-rule:evenodd;"
d="M 11.3625,30.6082
11.3061,30.5970
11.2582,30.5650
11.2262,30.5172
11.2150,30.4607
11.2150,30.1657
11.2262,30.1093
11.2582,30.0615
11.3061,30.0295
11.3625,30.0182
11.7075,30.0182
11.7639,30.0295
11.8118,30.0615
11.8438,30.1093
11.8550,30.1657
11.8550,30.4607
11.8438,30.5172
11.8118,30.5650
11.7639,30.5970
11.7075,30.6082
Z" /> 
</g>
<g style="fill:none; 
stroke:#C83434; stroke-width:1.0000; stroke-opacity:1; 
stroke-linecap:round; stroke-linejoin:round;">
<path d="M13.0500 13.8982
L12.0500 13.8982
" />
<path style="fill:#C83434; fill-opacity:1.0000; stroke:none;fill-rule:evenodd;"
d="M 9.4300,29.5708
9.4188,29.6272
9.3868,29.6750
9.3389,29.7070
9.2825,29.7182
8.9875,29.7182
8.9311,29.7070
8.8832,29.6750
8.8512,29.6272
8.8400,29.5708
8.8400,29.2257
8.8512,29.1693
8.8832,29.1215
8.9311,29.0895
8.9875,29.0782
9.2825,29.0782
9.3389,29.0895
9.3868,29.1215
9.4188,29.1693
9.4300,29.2257
Z" /> 
<path style="fill:#C83434; fill-opacity:1.0000; stroke:none;fill-rule:evenodd;"
d="M 8.4600,29.5708
8.4488,29.6272
8.4168,29.6750
8.3689,29.7070
8.3125,29.7182
8.0175,29.7182
7.9611,29.7070
7.9132,29.6750
7.8812,29.6272
7.8700,29.5708
7.8700,29.2257
7.8812,29.1693
7.9132,29.1215
7.9611,29.0895
8.0175,29.0782
8.3125,29.0782
8.3689,29.0895
8.4168,29.1215
8.4488,29.1693
8.4600,29.2257
Z" /> 
<path style="fill:#C83434; fill-opacity:1.0000; stroke:none;fill-rule:evenodd;"
d="M 23.9150,29.5708
23.9038,29.6272
23.8718,29.6750
23.8239,29.7070
23.7675,29.7182
23.4725,29.7182
23.4161,29.7070
23.3682,29.6750
23.3362,29.6272
23.3250,29.5708
23.3250,29.2257
23.3362,29.1693
23.3682,29.1215
23.4161,29.0895
23.4725,29.0782
23.7675,29.0782
23.8239,29.0895
23.8718,29.1215
23.9038,29.1693
23.9150,29.2257
Z" /> 
<path style="fill:#C83434; fill-opacity:1.0000; stroke:none;fill-rule:evenodd;"
d="M 22.9450,29.5708
22.9338,29.6272
22.9018,29.6750
22.8539,29.7070
22.7975,29.7182
22.5025,29.7182
22.4461,29.7070
22.3982,29.6750
22.3662,29.6272
22.3550,29.5708
22.3550,29.2257
22.3662,29.1693
22.3982,29.1215
22.4461,29.0895
22.5025,29.0782
22.7975,29.0782
22.8539,29.0895
22.9018,29.1215
22.9338,29.1693
22.9450,29.2257
Z" /> 
</g>
<g style="fill:none; 
stroke:#C83434; stroke-width:1.0000; stroke-opacity:1; 
stroke-linecap:round; stroke-linejoin:round;">
<path d="M13.9500 15.7982
L13.9500 14.7982
" />
<path style="fill:#C83434; fill-opacity:1.0000; stroke:none;fill-rule:evenodd;"
d="M 17.3625,34.3783
17.3061,34.3670
17.2582,34.3350
17.2262,34.2872
17.2150,34.2308
17.2150,33.9357
17.2262,33.8793
17.2582,33.8315
17.3061,33.7995
17.3625,33.7882
17.7075,33.7882
17.7639,33.7995
17.8118,33.8315
17.8438,33.8793
17.8550,33.9357
17.8550,34.2308
17.8438,34.2872
17.8118,34.3350
17.7639,34.3670
17.7075,34.3783
Z" /> 
<path style="fill:#C83434; fill-opacity:1.0000; stroke:none;fill-rule:evenodd;"
d="M 17.3625,33.4082
17.3061,33.3970
17.2582,33.3650
17.2262,33.3172
17.2150,33.2608
17.2150,32.9657
17.2262,32.9093
17.2582,32.8615
17.3061,32.8295
17.3625,32.8182
17.7075,32.8182
17.7639,32.8295
17.8118,32.8615
17.8438,32.9093
17.8550,32.9657
17.8550,33.2608
17.8438,33.3172
17.8118,33.3650
17.7639,33.3970
17.7075,33.4082
Z" /> 
</g>
<g style="fill:#C83434; fill-opacity:1.0000; stroke:none;">
<circle cx="4.7350" cy="28.4982" r="0.8500" /> 
</g>
<g style="fill:#C83434; fill-opacity:1.0000; stroke:none;">
<circle cx="4.7350" cy="31.0382" r="0.8500" /> 
<circle cx="4.7350" cy="33.5782" r="0.8500" /> 
<circle cx="4.7350" cy="36.1182" r="0.8500" /> 
<circle cx="4.5500" cy="13.4982" r="0.8500" /> 
</g>
<g style="fill:#C83434; fill-opacity:1.0000; stroke:none;">
<circle cx="4.5500" cy="16.0382" r="0.8500" /> 
<circle cx="4.5500" cy="18.5783" r="0.8500" /> 
<circle cx="4.5500" cy="21.1182" r="0.8500" /> 
</g>
<g style="fill:none; 
stroke:#FFFFFF; stroke-width:0.5000; stroke-opacity:1; 
stroke-linecap:round; stroke-linejoin:round;">
<path d="M13.9500 18.5983
L13.9500 17.5983
" />
<path d="M9.5500 18.5983
L9.5500 17.5983
" />
<path d="M8.6500 19.4982
L7.6500 19.4982
" />
<path d="M11.1500 18.5983
L11.1500 17.5983
" />
<path d="M17.1500 18.5983
L17.1500 17.5983
" />
<path d="M19.0500 13.8982
L18.0500 13.8982
" />
<path d="M23.2500 16.6982
L22.2500 16.6982
" />
<path d="M21.3500 15.7982
L21.3500 14.7982
" />
<path d="M19.0500 19.4982
L18.0500 19.4982
" />
<path d="M6.7500 18.5983
L6.7500 17.5983
" />
<path d="M6.7500 15.7982
L6.7500 14.7982
" />
<path d="M23.2500 13.8982
L22.2500 13.8982
" />
<path d="M24.1500 15.7982
L24.1500 14.7982
" />
<path d="M24.1500 18.5983
L24.1500 17.5983
" />
<path d="M19.9500 18.5983
L19.9500 17.5983
" />
<path d="M15.5500 18.2982
L15.5500 17.2982
" />
<path d="M19.9500 15.7982
L19.9500 14.7982
" />
<path d="M21.3500 18.5983
L21.3500 17.5983
" />
<path d="M17.1500 15.7982
L17.1500 14.7982
" />
<path d="M23.2500 19.4982
L22.2500 19.4982
" />
<path d="M13.0500 19.4982
L12.0500 19.4982
" />
<path d="M19.0500 16.6982
L18.0500 16.6982
" />
<path d="M9.5500 15.7982
L9.5500 14.7982
" />
<path d="M11.1500 15.7982
L11.1500 14.7982
" />
<path d="M8.6500 16.6982
L7.6500 16.6982
" />
<path d="M13.0500 16.6982
L12.0500 16.6982
" />
<path d="M8.6500 13.8982
L7.6500 13.8982
" />
<path d="M15.5500 15.9982
L15.5500 14.9982
" />
</g>
<g style="fill:#FFFFFF; fill-opacity:1.0000; stroke:none;">
<circle cx="11.7400" cy="55.7522" r="0.5000" /> 
</g>
<g style="fill:#FFFFFF; fill-opacity:1.0000; stroke:none;">
<circle cx="14.2800" cy="55.2522" r="0.5000" /> 
</g>
<g style="fill:#FFFFFF; fill-opacity:1.0000; stroke:none;">
<circle cx="16.8200" cy="55.7522" r="0.5000" /> 
</g>
<g style="fill:#FFFFFF; fill-opacity:1.0000; stroke:none;">
<circle cx="19.3600" cy="55.2522" r="0.5000" /> 
</g>
<g style="fill:none; 
stroke:#FFFFFF; stroke-width:0.5000; stroke-opacity:1; 
stroke-linecap:round; stroke-linejoin:round;">
<path d="M13.0500 13.8982
L12.0500 13.8982
" />
<path d="M13.9500 15.7982
L13.9500 14.7982
" />
</g>
<g style="fill:#FFFFFF; fill-opacity:1.0000; stroke:none;">
<circle cx="4.7350" cy="28.4982" r="0.5000" /> 
</g>
<g style="fill:#FFFFFF; fill-opacity:1.0000; stroke:none;">
<circle cx="4.7350" cy="31.0382" r="0.5000" /> 
</g>
<g style="fill:#FFFFFF; fill-opacity:1.0000; stroke:none;">
<circle cx="4.7350" cy="33.5782" r="0.5000" /> 
</g>
<g style="fill:#FFFFFF; fill-opacity:1.0000; stroke:none;">
<circle cx="4.7350" cy="36.1182" r="0.5000" /> 
</g>
<g style="fill:#FFFFFF; fill-opacity:1.0000; stroke:none;">
<circle cx="4.5500" cy="13.4982" r="0.5000" /> 
</g>
<g style="fill:#FFFFFF; fill-opacity:1.0000; stroke:none;">
<circle cx="4.5500" cy="16.0382" r="0.5000" /> 
</g>
<g style="fill:#FFFFFF; fill-opacity:1.0000; stroke:none;">
<circle cx="4.5500" cy="18.5783" r="0.5000" /> 
</g>
<g style="fill:#FFFFFF; fill-opacity:1.0000; stroke:none;">
<circle cx="4.5500" cy="21.1182" r="0.5000" /> 
<path style="fill:#D864FF; fill-opacity:0.4000; stroke:none;fill-rule:evenodd;"
d="M 14.1625,31.5782
14.1061,31.5670
14.0582,31.5350
14.0262,31.4872
14.0150,31.4307
14.0150,31.1357
14.0262,31.0793
14.0582,31.0315
14.1061,30.9995
14.1625,30.9882
14.5075,30.9882
14.5639,30.9995
14.6118,31.0315
14.6438,31.0793
14.6550,31.1357
14.6550,31.4307
14.6438,31.4872
14.6118,31.5350
14.5639,31.5670
14.5075,31.5782
Z" /> 
<path style="fill:#D864FF; fill-opacity:0.4000; stroke:none;fill-rule:evenodd;"
d="M 14.1625,30.6082
14.1061,30.5970
14.0582,30.5650
14.0262,30.5172
14.0150,30.4607
14.0150,30.1657
14.0262,30.1093
14.0582,30.0615
14.1061,30.0295
14.1625,30.0182
14.5075,30.0182
14.5639,30.0295
14.6118,30.0615
14.6438,30.1093
14.6550,30.1657
14.6550,30.4607
14.6438,30.5172
14.6118,30.5650
14.5639,30.5970
14.5075,30.6082
Z" /> 
<path style="fill:#D864FF; fill-opacity:0.4000; stroke:none;fill-rule:evenodd;"
d="M 20.1625,31.5782
20.1061,31.5670
20.0582,31.5350
20.0262,31.4872
20.0150,31.4307
20.0150,31.1357
20.0262,31.0793
20.0582,31.0315
20.1061,30.9995
20.1625,30.9882
20.5075,30.9882
20.5639,30.9995
20.6118,31.0315
20.6438,31.0793
20.6550,31.1357
20.6550,31.4307
20.6438,31.4872
20.6118,31.5350
20.5639,31.5670
20.5075,31.5782
Z" /> 
<path style="fill:#D864FF; fill-opacity:0.4000; stroke:none;fill-rule:evenodd;"
d="M 20.1625,30.6082
20.1061,30.5970
20.0582,30.5650
20.0262,30.5172
20.0150,30.4607
20.0150,30.1657
20.0262,30.1093
20.0582,30.0615
20.1061,30.0295
20.1625,30.0182
20.5075,30.0182
20.5639,30.0295
20.6118,30.0615
20.6438,30.1093
20.6550,30.1657
20.6550,30.4607
20.6438,30.5172
20.6118,30.5650
20.5639,30.5970
20.5075,30.6082
Z" /> 
<path style="fill:#D864FF; fill-opacity:0.4000; stroke:none;fill-rule:evenodd;"
d="M 7.4225,32.8182
7.4789,32.8295
7.5268,32.8615
7.5588,32.9093
7.5700,32.9657
7.5700,33.2608
7.5588,33.3172
7.5268,33.3650
7.4789,33.3970
7.4225,33.4082
7.0775,33.4082
7.0211,33.3970
6.9732,33.3650
6.9412,33.3172
6.9300,33.2608
6.9300,32.9657
6.9412,32.9093
6.9732,32.8615
7.0211,32.8295
7.0775,32.8182
Z" /> 
<path style="fill:#D864FF; fill-opacity:0.4000; stroke:none;fill-rule:evenodd;"
d="M 7.4225,33.7882
7.4789,33.7995
7.5268,33.8315
7.5588,33.8793
7.5700,33.9357
7.5700,34.2308
7.5588,34.2872
7.5268,34.3350
7.4789,34.3670
7.4225,34.3783
7.0775,34.3783
7.0211,34.3670
6.9732,34.3350
6.9412,34.2872
6.9300,34.2308
6.9300,33.9357
6.9412,33.8793
6.9732,33.8315
7.0211,33.7995
7.0775,33.7882
Z" /> 
<path style="fill:#D864FF; fill-opacity:0.4000; stroke:none;fill-rule:evenodd;"
d="M 7.0775,31.5782
7.0211,31.5670
6.9732,31.5350
6.9412,31.4872
6.9300,31.4307
6.9300,31.1357
6.9412,31.0793
6.9732,31.0315
7.0211,30.9995
7.0775,30.9882
7.4225,30.9882
7.4789,30.9995
7.5268,31.0315
7.5588,31.0793
7.5700,31.1357
7.5700,31.4307
7.5588,31.4872
7.5268,31.5350
7.4789,31.5670
7.4225,31.5782
Z" /> 
<path style="fill:#D864FF; fill-opacity:0.4000; stroke:none;fill-rule:evenodd;"
d="M 7.0775,30.6082
7.0211,30.5970
6.9732,30.5650
6.9412,30.5172
6.9300,30.4607
6.9300,30.1657
6.9412,30.1093
6.9732,30.0615
7.0211,30.0295
7.0775,30.0182
7.4225,30.0182
7.4789,30.0295
7.5268,30.0615
7.5588,30.1093
7.5700,30.1657
7.5700,30.4607
7.5588,30.5172
7.5268,30.5650
7.4789,30.5970
7.4225,30.6082
Z" /> 
</g>
<g style="fill:none; 
stroke:#D864FF; stroke-width:1.0000; stroke-opacity:1; 
stroke-linecap:round; stroke-linejoin:round;">
<path d="M13.9500 18.5983
L13.9500 17.5983
" />
<path style="fill:#D864FF; fill-opacity:0.4000; stroke:none;fill-rule:evenodd;"
d="M 9.4300,35.1707
9.4188,35.2272
9.3868,35.2750
9.3389,35.3070
9.2825,35.3182
8.9875,35.3182
8.9311,35.3070
8.8832,35.2750
8.8512,35.2272
8.8400,35.1707
8.8400,34.8257
8.8512,34.7693
8.8832,34.7215
8.9311,34.6895
8.9875,34.6782
9.2825,34.6782
9.3389,34.6895
9.3868,34.7215
9.4188,34.7693
9.4300,34.8257
Z" /> 
<path style="fill:#D864FF; fill-opacity:0.4000; stroke:none;fill-rule:evenodd;"
d="M 8.4600,35.1707
8.4488,35.2272
8.4168,35.2750
8.3689,35.3070
8.3125,35.3182
8.0175,35.3182
7.9611,35.3070
7.9132,35.2750
7.8812,35.2272
7.8700,35.1707
7.8700,34.8257
7.8812,34.7693
7.9132,34.7215
7.9611,34.6895
8.0175,34.6782
8.3125,34.6782
8.3689,34.6895
8.4168,34.7215
8.4488,34.7693
8.4600,34.8257
Z" /> 
</g>
<g style="fill:none; 
stroke:#D864FF; stroke-width:1.0000; stroke-opacity:1; 
stroke-linecap:round; stroke-linejoin:round;">
<path d="M9.5500 18.5983
L9.5500 17.5983
" />
<path style="fill:#D864FF; fill-opacity:0.4000; stroke:none;fill-rule:evenodd;"
d="M 23.9150,32.3708
23.9038,32.4272
23.8718,32.4750
23.8239,32.5070
23.7675,32.5183
23.4725,32.5183
23.4161,32.5070
23.3682,32.4750
23.3362,32.4272
23.3250,32.3708
23.3250,32.0257
23.3362,31.9693
23.3682,31.9215
23.4161,31.8895
23.4725,31.8782
23.7675,31.8782
23.8239,31.8895
23.8718,31.9215
23.9038,31.9693
23.9150,32.0257
Z" /> 
<path style="fill:#D864FF; fill-opacity:0.4000; stroke:none;fill-rule:evenodd;"
d="M 22.9450,32.3708
22.9338,32.4272
22.9018,32.4750
22.8539,32.5070
22.7975,32.5183
22.5025,32.5183
22.4461,32.5070
22.3982,32.4750
22.3662,32.4272
22.3550,32.3708
22.3550,32.0257
22.3662,31.9693
22.3982,31.9215
22.4461,31.8895
22.5025,31.8782
22.7975,31.8782
22.8539,31.8895
22.9018,31.9215
22.9338,31.9693
22.9450,32.0257
Z" /> 
</g>
<g style="fill:none; 
stroke:#D864FF; stroke-width:1.0000; stroke-opacity:1; 
stroke-linecap:round; stroke-linejoin:round;">
<path d="M8.6500 19.4982
L7.6500 19.4982
" />
<path style="fill:#D864FF; fill-opacity:0.4000; stroke:none;fill-rule:evenodd;"
d="M 19.7150,35.1707
19.7038,35.2272
19.6718,35.2750
19.6239,35.3070
19.5675,35.3182
19.2725,35.3182
19.2161,35.3070
19.1682,35.2750
19.1362,35.2272
19.1250,35.1707
19.1250,34.8257
19.1362,34.7693
19.1682,34.7215
19.2161,34.6895
19.2725,34.6782
19.5675,34.6782
19.6239,34.6895
19.6718,34.7215
19.7038,34.7693
19.7150,34.8257
Z" /> 
<path style="fill:#D864FF; fill-opacity:0.4000; stroke:none;fill-rule:evenodd;"
d="M 18.7450,35.1707
18.7338,35.2272
18.7018,35.2750
18.6539,35.3070
18.5975,35.3182
18.3025,35.3182
18.2461,35.3070
18.1982,35.2750
18.1662,35.2272
18.1550,35.1707
18.1550,34.8257
18.1662,34.7693
18.1982,34.7215
18.2461,34.6895
18.3025,34.6782
18.5975,34.6782
18.6539,34.6895
18.7018,34.7215
18.7338,34.7693
18.7450,34.8257
Z" /> 
</g>
<g style="fill:none; 
stroke:#D864FF; stroke-width:1.0000; stroke-opacity:1; 
stroke-linecap:round; stroke-linejoin:round;">
<path d="M11.1500 18.5983
L11.1500 17.5983
" />
<path style="fill:#D864FF; fill-opacity:0.4000; stroke:none;fill-rule:evenodd;"
d="M 14.1625,34.3783
14.1061,34.3670
14.0582,34.3350
14.0262,34.2872
14.0150,34.2308
14.0150,33.9357
14.0262,33.8793
14.0582,33.8315
14.1061,33.7995
14.1625,33.7882
14.5075,33.7882
14.5639,33.7995
14.6118,33.8315
14.6438,33.8793
14.6550,33.9357
14.6550,34.2308
14.6438,34.2872
14.6118,34.3350
14.5639,34.3670
14.5075,34.3783
Z" /> 
<path style="fill:#D864FF; fill-opacity:0.4000; stroke:none;fill-rule:evenodd;"
d="M 14.1625,33.4082
14.1061,33.3970
14.0582,33.3650
14.0262,33.3172
14.0150,33.2608
14.0150,32.9657
14.0262,32.9093
14.0582,32.8615
14.1061,32.8295
14.1625,32.8182
14.5075,32.8182
14.5639,32.8295
14.6118,32.8615
14.6438,32.9093
14.6550,32.9657
14.6550,33.2608
14.6438,33.3172
14.6118,33.3650
14.5639,33.3970
14.5075,33.4082
Z" /> 
</g>
<g style="fill:none; 
stroke:#D864FF; stroke-width:1.0000; stroke-opacity:1; 
stroke-linecap:round; stroke-linejoin:round;">
<path d="M17.1500 18.5983
L17.1500 17.5983
" />
<path d="M19.0500 13.8982
L18.0500 13.8982
" />
<path d="M23.2500 16.6982
L22.2500 16.6982
" />
<path d="M21.3500 15.7982
L21.3500 14.7982
" />
<path style="fill:#D864FF; fill-opacity:0.4000; stroke:none;fill-rule:evenodd;"
d="M 10.2225,30.0182
10.2789,30.0295
10.3268,30.0615
10.3588,30.1093
10.3700,30.1657
10.3700,30.4607
10.3588,30.5172
10.3268,30.5650
10.2789,30.5970
10.2225,30.6082
9.8775,30.6082
9.8211,30.5970
9.7732,30.5650
9.7412,30.5172
9.7300,30.4607
9.7300,30.1657
9.7412,30.1093
9.7732,30.0615
9.8211,30.0295
9.8775,30.0182
Z" /> 
<path style="fill:#D864FF; fill-opacity:0.4000; stroke:none;fill-rule:evenodd;"
d="M 10.2225,30.9882
10.2789,30.9995
10.3268,31.0315
10.3588,31.0793
10.3700,31.1357
10.3700,31.4307
10.3588,31.4872
10.3268,31.5350
10.2789,31.5670
10.2225,31.5782
9.8775,31.5782
9.8211,31.5670
9.7732,31.5350
9.7412,31.4872
9.7300,31.4307
9.7300,31.1357
9.7412,31.0793
9.7732,31.0315
9.8211,30.9995
9.8775,30.9882
Z" /> 
</g>
<g style="fill:none; 
stroke:#D864FF; stroke-width:1.0000; stroke-opacity:1; 
stroke-linecap:round; stroke-linejoin:round;">
<path d="M19.0500 19.4982
L18.0500 19.4982
" />
<path d="M6.7500 18.5983
L6.7500 17.5983
" />
<path d="M6.7500 15.7982
L6.7500 14.7982
" />
<path d="M23.2500 13.8982
L22.2500 13.8982
" />
<path d="M24.1500 15.7982
L24.1500 14.7982
" />
<path d="M24.1500 18.5983
L24.1500 17.5983
" />
<path style="fill:#D864FF; fill-opacity:0.4000; stroke:none;fill-rule:evenodd;"
d="M 13.7150,29.5708
13.7038,29.6272
13.6718,29.6750
13.6239,29.7070
13.5675,29.7182
13.2725,29.7182
13.2161,29.7070
13.1682,29.6750
13.1362,29.6272
13.1250,29.5708
13.1250,29.2257
13.1362,29.1693
13.1682,29.1215
13.2161,29.0895
13.2725,29.0782
13.5675,29.0782
13.6239,29.0895
13.6718,29.1215
13.7038,29.1693
13.7150,29.2257
Z" /> 
<path style="fill:#D864FF; fill-opacity:0.4000; stroke:none;fill-rule:evenodd;"
d="M 12.7450,29.5708
12.7338,29.6272
12.7018,29.6750
12.6539,29.7070
12.5975,29.7182
12.3025,29.7182
12.2461,29.7070
12.1982,29.6750
12.1662,29.6272
12.1550,29.5708
12.1550,29.2257
12.1662,29.1693
12.1982,29.1215
12.2461,29.0895
12.3025,29.0782
12.5975,29.0782
12.6539,29.0895
12.7018,29.1215
12.7338,29.1693
12.7450,29.2257
Z" /> 
<path style="fill:#D864FF; fill-opacity:0.4000; stroke:none;fill-rule:evenodd;"
d="M 19.7150,29.5708
19.7038,29.6272
19.6718,29.6750
19.6239,29.7070
19.5675,29.7182
19.2725,29.7182
19.2161,29.7070
19.1682,29.6750
19.1362,29.6272
19.1250,29.5708
19.1250,29.2257
19.1362,29.1693
19.1682,29.1215
19.2161,29.0895
19.2725,29.0782
19.5675,29.0782
19.6239,29.0895
19.6718,29.1215
19.7038,29.1693
19.7150,29.2257
Z" /> 
<path style="fill:#D864FF; fill-opacity:0.4000; stroke:none;fill-rule:evenodd;"
d="M 18.7450,29.5708
18.7338,29.6272
18.7018,29.6750
18.6539,29.7070
18.5975,29.7182
18.3025,29.7182
18.2461,29.7070
18.1982,29.6750
18.1662,29.6272
18.1550,29.5708
18.1550,29.2257
18.1662,29.1693
18.1982,29.1215
18.2461,29.0895
18.3025,29.0782
18.5975,29.0782
18.6539,29.0895
18.7018,29.1215
18.7338,29.1693
18.7450,29.2257
Z" /> 
<path style="fill:#D864FF; fill-opacity:0.4000; stroke:none;fill-rule:evenodd;"
d="M 23.9150,35.1707
23.9038,35.2272
23.8718,35.2750
23.8239,35.3070
23.7675,35.3182
23.4725,35.3182
23.4161,35.3070
23.3682,35.2750
23.3362,35.2272
23.3250,35.1707
23.3250,34.8257
23.3362,34.7693
23.3682,34.7215
23.4161,34.6895
23.4725,34.6782
23.7675,34.6782
23.8239,34.6895
23.8718,34.7215
23.9038,34.7693
23.9150,34.8257
Z" /> 
<path style="fill:#D864FF; fill-opacity:0.4000; stroke:none;fill-rule:evenodd;"
d="M 22.9450,35.1707
22.9338,35.2272
22.9018,35.2750
22.8539,35.3070
22.7975,35.3182
22.5025,35.3182
22.4461,35.3070
22.3982,35.2750
22.3662,35.2272
22.3550,35.1707
22.3550,34.8257
22.3662,34.7693
22.3982,34.7215
22.4461,34.6895
22.5025,34.6782
22.7975,34.6782
22.8539,34.6895
22.9018,34.7215
22.9338,34.7693
22.9450,34.8257
Z" /> 
<path style="fill:#D864FF; fill-opacity:0.4000; stroke:none;fill-rule:evenodd;"
d="M 20.1625,34.3783
20.1061,34.3670
20.0582,34.3350
20.0262,34.2872
20.0150,34.2308
20.0150,33.9357
20.0262,33.8793
20.0582,33.8315
20.1061,33.7995
20.1625,33.7882
20.5075,33.7882
20.5639,33.7995
20.6118,33.8315
20.6438,33.8793
20.6550,33.9357
20.6550,34.2308
20.6438,34.2872
20.6118,34.3350
20.5639,34.3670
20.5075,34.3783
Z" /> 
<path style="fill:#D864FF; fill-opacity:0.4000; stroke:none;fill-rule:evenodd;"
d="M 20.1625,33.4082
20.1061,33.3970
20.0582,33.3650
20.0262,33.3172
20.0150,33.2608
20.0150,32.9657
20.0262,32.9093
20.0582,32.8615
20.1061,32.8295
20.1625,32.8182
20.5075,32.8182
20.5639,32.8295
20.6118,32.8615
20.6438,32.9093
20.6550,32.9657
20.6550,33.2608
20.6438,33.3172
20.6118,33.3650
20.5639,33.3970
20.5075,33.4082
Z" /> 
<path style="fill:#D864FF; fill-opacity:0.4000; stroke:none;fill-rule:evenodd;"
d="M 24.3625,31.5782
24.3061,31.5670
24.2582,31.5350
24.2262,31.4872
24.2150,31.4307
24.2150,31.1357
24.2262,31.0793
24.2582,31.0315
24.3061,30.9995
24.3625,30.9882
24.7075,30.9882
24.7639,30.9995
24.8118,31.0315
24.8438,31.0793
24.8550,31.1357
24.8550,31.4307
24.8438,31.4872
24.8118,31.5350
24.7639,31.5670
24.7075,31.5782
Z" /> 
<path style="fill:#D864FF; fill-opacity:0.4000; stroke:none;fill-rule:evenodd;"
d="M 24.3625,30.6082
24.3061,30.5970
24.2582,30.5650
24.2262,30.5172
24.2150,30.4607
24.2150,30.1657
24.2262,30.1093
24.2582,30.0615
24.3061,30.0295
24.3625,30.0182
24.7075,30.0182
24.7639,30.0295
24.8118,30.0615
24.8438,30.1093
24.8550,30.1657
24.8550,30.4607
24.8438,30.5172
24.8118,30.5650
24.7639,30.5970
24.7075,30.6082
Z" /> 
<path style="fill:#D864FF; fill-opacity:0.4000; stroke:none;fill-rule:evenodd;"
d="M 7.8700,32.0257
7.8812,31.9693
7.9132,31.9215
7.9611,31.8895
8.0175,31.8782
8.3125,31.8782
8.3689,31.8895
8.4168,31.9215
8.4488,31.9693
8.4600,32.0257
8.4600,32.3708
8.4488,32.4272
8.4168,32.4750
8.3689,32.5070
8.3125,32.5183
8.0175,32.5183
7.9611,32.5070
7.9132,32.4750
7.8812,32.4272
7.8700,32.3708
Z" /> 
<path style="fill:#D864FF; fill-opacity:0.4000; stroke:none;fill-rule:evenodd;"
d="M 8.8400,32.0257
8.8512,31.9693
8.8832,31.9215
8.9311,31.8895
8.9875,31.8782
9.2825,31.8782
9.3389,31.8895
9.3868,31.9215
9.4188,31.9693
9.4300,32.0257
9.4300,32.3708
9.4188,32.4272
9.3868,32.4750
9.3389,32.5070
9.2825,32.5183
8.9875,32.5183
8.9311,32.5070
8.8832,32.4750
8.8512,32.4272
8.8400,32.3708
Z" /> 
</g>
<g style="fill:none; 
stroke:#D864FF; stroke-width:1.0000; stroke-opacity:1; 
stroke-linecap:round; stroke-linejoin:round;">
<path d="M19.9500 18.5983
L19.9500 17.5983
" />
<path style="fill:#D864FF; fill-opacity:0.4000; stroke:none;fill-rule:evenodd;"
d="M 13.7150,35.1707
13.7038,35.2272
13.6718,35.2750
13.6239,35.3070
13.5675,35.3182
13.2725,35.3182
13.2161,35.3070
13.1682,35.2750
13.1362,35.2272
13.1250,35.1707
13.1250,34.8257
13.1362,34.7693
13.1682,34.7215
13.2161,34.6895
13.2725,34.6782
13.5675,34.6782
13.6239,34.6895
13.6718,34.7215
13.7038,34.7693
13.7150,34.8257
Z" /> 
<path style="fill:#D864FF; fill-opacity:0.4000; stroke:none;fill-rule:evenodd;"
d="M 12.7450,35.1707
12.7338,35.2272
12.7018,35.2750
12.6539,35.3070
12.5975,35.3182
12.3025,35.3182
12.2461,35.3070
12.1982,35.2750
12.1662,35.2272
12.1550,35.1707
12.1550,34.8257
12.1662,34.7693
12.1982,34.7215
12.2461,34.6895
12.3025,34.6782
12.5975,34.6782
12.6539,34.6895
12.7018,34.7215
12.7338,34.7693
12.7450,34.8257
Z" /> 
<path style="fill:#D864FF; fill-opacity:0.4000; stroke:none;fill-rule:evenodd;"
d="M 13.7150,32.3708
13.7038,32.4272
13.6718,32.4750
13.6239,32.5070
13.5675,32.5183
13.2725,32.5183
13.2161,32.5070
13.1682,32.4750
13.1362,32.4272
13.1250,32.3708
13.1250,32.0257
13.1362,31.9693
13.1682,31.9215
13.2161,31.8895
13.2725,31.8782
13.5675,31.8782
13.6239,31.8895
13.6718,31.9215
13.7038,31.9693
13.7150,32.0257
Z" /> 
<path style="fill:#D864FF; fill-opacity:0.4000; stroke:none;fill-rule:evenodd;"
d="M 12.7450,32.3708
12.7338,32.4272
12.7018,32.4750
12.6539,32.5070
12.5975,32.5183
12.3025,32.5183
12.2461,32.5070
12.1982,32.4750
12.1662,32.4272
12.1550,32.3708
12.1550,32.0257
12.1662,31.9693
12.1982,31.9215
12.2461,31.8895
12.3025,31.8782
12.5975,31.8782
12.6539,31.8895
12.7018,31.9215
12.7338,31.9693
12.7450,32.0257
Z" /> 
</g>
<g style="fill:none; 
stroke:#D864FF; stroke-width:1.0000; stroke-opacity:1; 
stroke-linecap:round; stroke-linejoin:round;">
<path d="M15.5500 18.2982
L15.5500 17.2982
" />
<path d="M19.9500 15.7982
L19.9500 14.7982
" />
<path d="M21.3500 18.5983
L21.3500 17.5983
" />
<path d="M17.1500 15.7982
L17.1500 14.7982
" />
<path d="M23.2500 19.4982
L22.2500 19.4982
" />
<path d="M13.0500 19.4982
L12.0500 19.4982
" />
<path style="fill:#D864FF; fill-opacity:0.4000; stroke:none;fill-rule:evenodd;"
d="M 17.3625,31.5782
17.3061,31.5670
17.2582,31.5350
17.2262,31.4872
17.2150,31.4307
17.2150,31.1357
17.2262,31.0793
17.2582,31.0315
17.3061,30.9995
17.3625,30.9882
17.7075,30.9882
17.7639,30.9995
17.8118,31.0315
17.8438,31.0793
17.8550,31.1357
17.8550,31.4307
17.8438,31.4872
17.8118,31.5350
17.7639,31.5670
17.7075,31.5782
Z" /> 
<path style="fill:#D864FF; fill-opacity:0.4000; stroke:none;fill-rule:evenodd;"
d="M 17.3625,30.6082
17.3061,30.5970
17.2582,30.5650
17.2262,30.5172
17.2150,30.4607
17.2150,30.1657
17.2262,30.1093
17.2582,30.0615
17.3061,30.0295
17.3625,30.0182
17.7075,30.0182
17.7639,30.0295
17.8118,30.0615
17.8438,30.1093
17.8550,30.1657
17.8550,30.4607
17.8438,30.5172
17.8118,30.5650
17.7639,30.5970
17.7075,30.6082
Z" /> 
<path style="fill:#D864FF; fill-opacity:0.4000; stroke:none;fill-rule:evenodd;"
d="M 19.7150,32.3708
19.7038,32.4272
19.6718,32.4750
19.6239,32.5070
19.5675,32.5183
19.2725,32.5183
19.2161,32.5070
19.1682,32.4750
19.1362,32.4272
19.1250,32.3708
19.1250,32.0257
19.1362,31.9693
19.1682,31.9215
19.2161,31.8895
19.2725,31.8782
19.5675,31.8782
19.6239,31.8895
19.6718,31.9215
19.7038,31.9693
19.7150,32.0257
Z" /> 
<path style="fill:#D864FF; fill-opacity:0.4000; stroke:none;fill-rule:evenodd;"
d="M 18.7450,32.3708
18.7338,32.4272
18.7018,32.4750
18.6539,32.5070
18.5975,32.5183
18.3025,32.5183
18.2461,32.5070
18.1982,32.4750
18.1662,32.4272
18.1550,32.3708
18.1550,32.0257
18.1662,31.9693
18.1982,31.9215
18.2461,31.8895
18.3025,31.8782
18.5975,31.8782
18.6539,31.8895
18.7018,31.9215
18.7338,31.9693
18.7450,32.0257
Z" /> 
</g>
<g style="fill:none; 
stroke:#D864FF; stroke-width:1.0000; stroke-opacity:1; 
stroke-linecap:round; stroke-linejoin:round;">
<path d="M19.0500 16.6982
L18.0500 16.6982
" />
<path d="M9.5500 15.7982
L9.5500 14.7982
" />
<path d="M11.1500 15.7982
L11.1500 14.7982
" />
<path d="M8.6500 16.6982
L7.6500 16.6982
" />
<path d="M13.0500 16.6982
L12.0500 16.6982
" />
<path d="M8.6500 13.8982
L7.6500 13.8982
" />
<path style="fill:#D864FF; fill-opacity:0.4000; stroke:none;fill-rule:evenodd;"
d="M 15.7625,32.1782
15.7061,32.1670
15.6582,32.1350
15.6262,32.0872
15.6150,32.0307
15.6150,31.7357
15.6262,31.6793
15.6582,31.6315
15.7061,31.5995
15.7625,31.5882
16.1075,31.5882
16.1639,31.5995
16.2118,31.6315
16.2438,31.6793
16.2550,31.7357
16.2550,32.0307
16.2438,32.0872
16.2118,32.1350
16.1639,32.1670
16.1075,32.1782
Z" /> 
<path style="fill:#D864FF; fill-opacity:0.4000; stroke:none;fill-rule:evenodd;"
d="M 15.7625,31.2082
15.7061,31.1970
15.6582,31.1650
15.6262,31.1172
15.6150,31.0607
15.6150,30.7657
15.6262,30.7093
15.6582,30.6615
15.7061,30.6295
15.7625,30.6182
16.1075,30.6182
16.1639,30.6295
16.2118,30.6615
16.2438,30.7093
16.2550,30.7657
16.2550,31.0607
16.2438,31.1172
16.2118,31.1650
16.1639,31.1970
16.1075,31.2082
Z" /> 
<path style="fill:#D864FF; fill-opacity:0.4000; stroke:none;fill-rule:evenodd;"
d="M 24.3625,34.3783
24.3061,34.3670
24.2582,34.3350
24.2262,34.2872
24.2150,34.2308
24.2150,33.9357
24.2262,33.8793
24.2582,33.8315
24.3061,33.7995
24.3625,33.7882
24.7075,33.7882
24.7639,33.7995
24.8118,33.8315
24.8438,33.8793
24.8550,33.9357
24.8550,34.2308
24.8438,34.2872
24.8118,34.3350
24.7639,34.3670
24.7075,34.3783
Z" /> 
<path style="fill:#D864FF; fill-opacity:0.4000; stroke:none;fill-rule:evenodd;"
d="M 24.3625,33.4082
24.3061,33.3970
24.2582,33.3650
24.2262,33.3172
24.2150,33.2608
24.2150,32.9657
24.2262,32.9093
24.2582,32.8615
24.3061,32.8295
24.3625,32.8182
24.7075,32.8182
24.7639,32.8295
24.8118,32.8615
24.8438,32.9093
24.8550,32.9657
24.8550,33.2608
24.8438,33.3172
24.8118,33.3650
24.7639,33.3970
24.7075,33.4082
Z" /> 
<path style="fill:#D864FF; fill-opacity:0.4000; stroke:none;fill-rule:evenodd;"
d="M 21.5625,31.5782
21.5061,31.5670
21.4582,31.5350
21.4262,31.4872
21.4150,31.4307
21.4150,31.1357
21.4262,31.0793
21.4582,31.0315
21.5061,30.9995
21.5625,30.9882
21.9075,30.9882
21.9639,30.9995
22.0118,31.0315
22.0438,31.0793
22.0550,31.1357
22.0550,31.4307
22.0438,31.4872
22.0118,31.5350
21.9639,31.5670
21.9075,31.5782
Z" /> 
<path style="fill:#D864FF; fill-opacity:0.4000; stroke:none;fill-rule:evenodd;"
d="M 21.5625,30.6082
21.5061,30.5970
21.4582,30.5650
21.4262,30.5172
21.4150,30.4607
21.4150,30.1657
21.4262,30.1093
21.4582,30.0615
21.5061,30.0295
21.5625,30.0182
21.9075,30.0182
21.9639,30.0295
22.0118,30.0615
22.0438,30.1093
22.0550,30.1657
22.0550,30.4607
22.0438,30.5172
22.0118,30.5650
21.9639,30.5970
21.9075,30.6082
Z" /> 
</g>
<g style="fill:none; 
stroke:#D864FF; stroke-width:1.0000; stroke-opacity:1; 
stroke-linecap:round; stroke-linejoin:round;">
<path d="M15.5500 15.9982
L15.5500 14.9982
" />
<path style="fill:#D864FF; fill-opacity:0.4000; stroke:none;fill-rule:evenodd;"
d="M 11.3625,34.3783
11.3061,34.3670
11.2582,34.3350
11.2262,34.2872
11.2150,34.2308
11.2150,33.9357
11.2262,33.8793
11.2582,33.8315
11.3061,33.7995
11.3625,33.7882
11.7075,33.7882
11.7639,33.7995
11.8118,33.8315
11.8438,33.8793
11.8550,33.9357
11.8550,34.2308
11.8438,34.2872
11.8118,34.3350
11.7639,34.3670
11.7075,34.3783
Z" /> 
<path style="fill:#D864FF; fill-opacity:0.4000; stroke:none;fill-rule:evenodd;"
d="M 11.3625,33.4082
11.3061,33.3970
11.2582,33.3650
11.2262,33.3172
11.2150,33.2608
11.2150,32.9657
11.2262,32.9093
11.2582,32.8615
11.3061,32.8295
11.3625,32.8182
11.7075,32.8182
11.7639,32.8295
11.8118,32.8615
11.8438,32.9093
11.8550,32.9657
11.8550,33.2608
11.8438,33.3172
11.8118,33.3650
11.7639,33.3970
11.7075,33.4082
Z" /> 
<path style="fill:#D864FF; fill-opacity:0.4000; stroke:none;fill-rule:evenodd;"
d="M 21.5625,34.3783
21.5061,34.3670
21.4582,34.3350
21.4262,34.2872
21.4150,34.2308
21.4150,33.9357
21.4262,33.8793
21.4582,33.8315
21.5061,33.7995
21.5625,33.7882
21.9075,33.7882
21.9639,33.7995
22.0118,33.8315
22.0438,33.8793
22.0550,33.9357
22.0550,34.2308
22.0438,34.2872
22.0118,34.3350
21.9639,34.3670
21.9075,34.3783
Z" /> 
<path style="fill:#D864FF; fill-opacity:0.4000; stroke:none;fill-rule:evenodd;"
d="M 21.5625,33.4082
21.5061,33.3970
21.4582,33.3650
21.4262,33.3172
21.4150,33.2608
21.4150,32.9657
21.4262,32.9093
21.4582,32.8615
21.5061,32.8295
21.5625,32.8182
21.9075,32.8182
21.9639,32.8295
22.0118,32.8615
22.0438,32.9093
22.0550,32.9657
22.0550,33.2608
22.0438,33.3172
22.0118,33.3650
21.9639,33.3970
21.9075,33.4082
Z" /> 
<path style="fill:#D864FF; fill-opacity:0.4000; stroke:none;fill-rule:evenodd;"
d="M 15.7625,34.1782
15.7061,34.1670
15.6582,34.1350
15.6262,34.0872
15.6150,34.0307
15.6150,33.7357
15.6262,33.6793
15.6582,33.6315
15.7061,33.5995
15.7625,33.5882
16.1075,33.5882
16.1639,33.5995
16.2118,33.6315
16.2438,33.6793
16.2550,33.7357
16.2550,34.0307
16.2438,34.0872
16.2118,34.1350
16.1639,34.1670
16.1075,34.1782
Z" /> 
<path style="fill:#D864FF; fill-opacity:0.4000; stroke:none;fill-rule:evenodd;"
d="M 15.7625,33.2082
15.7061,33.1970
15.6582,33.1650
15.6262,33.1172
15.6150,33.0607
15.6150,32.7657
15.6262,32.7093
15.6582,32.6615
15.7061,32.6295
15.7625,32.6182
16.1075,32.6182
16.1639,32.6295
16.2118,32.6615
16.2438,32.7093
16.2550,32.7657
16.2550,33.0607
16.2438,33.1172
16.2118,33.1650
16.1639,33.1970
16.1075,33.2082
Z" /> 
<path style="fill:#D864FF; fill-opacity:0.4000; stroke:none;fill-rule:evenodd;"
d="M 9.8775,34.3783
9.8211,34.3670
9.7732,34.3350
9.7412,34.2872
9.7300,34.2308
9.7300,33.9357
9.7412,33.8793
9.7732,33.8315
9.8211,33.7995
9.8775,33.7882
10.2225,33.7882
10.2789,33.7995
10.3268,33.8315
10.3588,33.8793
10.3700,33.9357
10.3700,34.2308
10.3588,34.2872
10.3268,34.3350
10.2789,34.3670
10.2225,34.3783
Z" /> 
<path style="fill:#D864FF; fill-opacity:0.4000; stroke:none;fill-rule:evenodd;"
d="M 9.8775,33.4082
9.8211,33.3970
9.7732,33.3650
9.7412,33.3172
9.7300,33.2608
9.7300,32.9657
9.7412,32.9093
9.7732,32.8615
9.8211,32.8295
9.8775,32.8182
10.2225,32.8182
10.2789,32.8295
10.3268,32.8615
10.3588,32.9093
10.3700,32.9657
10.3700,33.2608
10.3588,33.3172
10.3268,33.3650
10.2789,33.3970
10.2225,33.4082
Z" /> 
<path style="fill:#D864FF; fill-opacity:0.4000; stroke:none;fill-rule:evenodd;"
d="M 10.9896,55.2519
10.9900,55.2517
10.9901,55.2517
11.0088,55.0854
11.0643,54.9268
11.1536,54.7846
11.2724,54.6659
11.4146,54.5765
11.5731,54.5211
11.7400,54.5022
11.9069,54.5211
12.0654,54.5765
12.2076,54.6659
12.3264,54.7846
12.4157,54.9268
12.4712,55.0854
12.4899,55.2517
12.4900,55.2517
12.4904,55.2519
12.4905,55.2522
12.4905,55.7522
12.4904,55.7526
12.4900,55.7527
12.4899,55.7527
12.4712,55.9191
12.4157,56.0777
12.3264,56.2199
12.2076,56.3386
12.0654,56.4280
11.9069,56.4834
11.7400,56.5022
11.5731,56.4834
11.4146,56.4280
11.2724,56.3386
11.1536,56.2199
11.0643,56.0777
11.0088,55.9191
10.9901,55.7527
10.9900,55.7527
10.9896,55.7526
10.9895,55.7522
10.9895,55.2522
Z" /> 
<path style="fill:#D864FF; fill-opacity:0.4000; stroke:none;fill-rule:evenodd;"
d="M 15.0304,55.7526
15.0300,55.7527
15.0299,55.7527
15.0112,55.9191
14.9557,56.0777
14.8664,56.2199
14.7476,56.3386
14.6054,56.4280
14.4469,56.4834
14.2800,56.5022
14.1131,56.4834
13.9546,56.4280
13.8124,56.3386
13.6936,56.2199
13.6043,56.0777
13.5488,55.9191
13.5301,55.7527
13.5300,55.7527
13.5296,55.7526
13.5295,55.7522
13.5295,55.2522
13.5296,55.2519
13.5300,55.2517
13.5301,55.2517
13.5488,55.0854
13.6043,54.9268
13.6936,54.7846
13.8124,54.6659
13.9546,54.5765
14.1131,54.5211
14.2800,54.5022
14.4469,54.5211
14.6054,54.5765
14.7476,54.6659
14.8664,54.7846
14.9557,54.9268
15.0112,55.0854
15.0299,55.2517
15.0300,55.2517
15.0304,55.2519
15.0305,55.2522
15.0305,55.7522
Z" /> 
<path style="fill:#D864FF; fill-opacity:0.4000; stroke:none;fill-rule:evenodd;"
d="M 16.0696,55.2519
16.0700,55.2517
16.0701,55.2517
16.0888,55.0854
16.1443,54.9268
16.2336,54.7846
16.3524,54.6659
16.4946,54.5765
16.6531,54.5211
16.8200,54.5022
16.9869,54.5211
17.1454,54.5765
17.2876,54.6659
17.4064,54.7846
17.4957,54.9268
17.5512,55.0854
17.5699,55.2517
17.5700,55.2517
17.5704,55.2519
17.5705,55.2522
17.5705,55.7522
17.5704,55.7526
17.5700,55.7527
17.5699,55.7527
17.5512,55.9191
17.4957,56.0777
17.4064,56.2199
17.2876,56.3386
17.1454,56.4280
16.9869,56.4834
16.8200,56.5022
16.6531,56.4834
16.4946,56.4280
16.3524,56.3386
16.2336,56.2199
16.1443,56.0777
16.0888,55.9191
16.0701,55.7527
16.0700,55.7527
16.0696,55.7526
16.0695,55.7522
16.0695,55.2522
Z" /> 
<path style="fill:#D864FF; fill-opacity:0.4000; stroke:none;fill-rule:evenodd;"
d="M 20.1104,55.7526
20.1100,55.7527
20.1099,55.7527
20.0912,55.9191
20.0357,56.0777
19.9464,56.2199
19.8276,56.3386
19.6854,56.4280
19.5269,56.4834
19.3600,56.5022
19.1931,56.4834
19.0346,56.4280
18.8924,56.3386
18.7736,56.2199
18.6843,56.0777
18.6288,55.9191
18.6101,55.7527
18.6100,55.7527
18.6096,55.7526
18.6095,55.7522
18.6095,55.2522
18.6096,55.2519
18.6100,55.2517
18.6101,55.2517
18.6288,55.0854
18.6843,54.9268
18.7736,54.7846
18.8924,54.6659
19.0346,54.5765
19.1931,54.5211
19.3600,54.5022
19.5269,54.5211
19.6854,54.5765
19.8276,54.6659
19.9464,54.7846
20.0357,54.9268
20.0912,55.0854
20.1099,55.2517
20.1100,55.2517
20.1104,55.2519
20.1105,55.2522
20.1105,55.7522
Z" /> 
<path style="fill:#D864FF; fill-opacity:0.4000; stroke:none;fill-rule:evenodd;"
d="M 11.3625,31.5782
11.3061,31.5670
11.2582,31.5350
11.2262,31.4872
11.2150,31.4307
11.2150,31.1357
11.2262,31.0793
11.2582,31.0315
11.3061,30.9995
11.3625,30.9882
11.7075,30.9882
11.7639,30.9995
11.8118,31.0315
11.8438,31.0793
11.8550,31.1357
11.8550,31.4307
11.8438,31.4872
11.8118,31.5350
11.7639,31.5670
11.7075,31.5782
Z" /> 
<path style="fill:#D864FF; fill-opacity:0.4000; stroke:none;fill-rule:evenodd;"
d="M 11.3625,30.6082
11.3061,30.5970
11.2582,30.5650
11.2262,30.5172
11.2150,30.4607
11.2150,30.1657
11.2262,30.1093
11.2582,30.0615
11.3061,30.0295
11.3625,30.0182
11.7075,30.0182
11.7639,30.0295
11.8118,30.0615
11.8438,30.1093
11.8550,30.1657
11.8550,30.4607
11.8438,30.5172
11.8118,30.5650
11.7639,30.5970
11.7075,30.6082
Z" /> 
</g>
<g style="fill:none; 
stroke:#D864FF; stroke-width:1.0000; stroke-opacity:1; 
stroke-linecap:round; stroke-linejoin:round;">
<path d="M13.0500 13.8982
L12.0500 13.8982
" />
<path style="fill:#D864FF; fill-opacity:0.4000; stroke:none;fill-rule:evenodd;"
d="M 9.4300,29.5708
9.4188,29.6272
9.3868,29.6750
9.3389,29.7070
9.2825,29.7182
8.9875,29.7182
8.9311,29.7070
8.8832,29.6750
8.8512,29.6272
8.8400,29.5708
8.8400,29.2257
8.8512,29.1693
8.8832,29.1215
8.9311,29.0895
8.9875,29.0782
9.2825,29.0782
9.3389,29.0895
9.3868,29.1215
9.4188,29.1693
9.4300,29.2257
Z" /> 
<path style="fill:#D864FF; fill-opacity:0.4000; stroke:none;fill-rule:evenodd;"
d="M 8.4600,29.5708
8.4488,29.6272
8.4168,29.6750
8.3689,29.7070
8.3125,29.7182
8.0175,29.7182
7.9611,29.7070
7.9132,29.6750
7.8812,29.6272
7.8700,29.5708
7.8700,29.2257
7.8812,29.1693
7.9132,29.1215
7.9611,29.0895
8.0175,29.0782
8.3125,29.0782
8.3689,29.0895
8.4168,29.1215
8.4488,29.1693
8.4600,29.2257
Z" /> 
<path style="fill:#D864FF; fill-opacity:0.4000; stroke:none;fill-rule:evenodd;"
d="M 23.9150,29.5708
23.9038,29.6272
23.8718,29.6750
23.8239,29.7070
23.7675,29.7182
23.4725,29.7182
23.4161,29.7070
23.3682,29.6750
23.3362,29.6272
23.3250,29.5708
23.3250,29.2257
23.3362,29.1693
23.3682,29.1215
23.4161,29.0895
23.4725,29.0782
23.7675,29.0782
23.8239,29.0895
23.8718,29.1215
23.9038,29.1693
23.9150,29.2257
Z" /> 
<path style="fill:#D864FF; fill-opacity:0.4000; stroke:none;fill-rule:evenodd;"
d="M 22.9450,29.5708
22.9338,29.6272
22.9018,29.6750
22.8539,29.7070
22.7975,29.7182
22.5025,29.7182
22.4461,29.7070
22.3982,29.6750
22.3662,29.6272
22.3550,29.5708
22.3550,29.2257
22.3662,29.1693
22.3982,29.1215
22.4461,29.0895
22.5025,29.0782
22.7975,29.0782
22.8539,29.0895
22.9018,29.1215
22.9338,29.1693
22.9450,29.2257
Z" /> 
</g>
<g style="fill:none; 
stroke:#D864FF; stroke-width:1.0000; stroke-opacity:1; 
stroke-linecap:round; stroke-linejoin:round;">
<path d="M13.9500 15.7982
L13.9500 14.7982
" />
<path style="fill:#D864FF; fill-opacity:0.4000; stroke:none;fill-rule:evenodd;"
d="M 17.3625,34.3783
17.3061,34.3670
17.2582,34.3350
17.2262,34.2872
17.2150,34.2308
17.2150,33.9357
17.2262,33.8793
17.2582,33.8315
17.3061,33.7995
17.3625,33.7882
17.7075,33.7882
17.7639,33.7995
17.8118,33.8315
17.8438,33.8793
17.8550,33.9357
17.8550,34.2308
17.8438,34.2872
17.8118,34.3350
17.7639,34.3670
17.7075,34.3783
Z" /> 
<path style="fill:#D864FF; fill-opacity:0.4000; stroke:none;fill-rule:evenodd;"
d="M 17.3625,33.4082
17.3061,33.3970
17.2582,33.3650
17.2262,33.3172
17.2150,33.2608
17.2150,32.9657
17.2262,32.9093
17.2582,32.8615
17.3061,32.8295
17.3625,32.8182
17.7075,32.8182
17.7639,32.8295
17.8118,32.8615
17.8438,32.9093
17.8550,32.9657
17.8550,33.2608
17.8438,33.3172
17.8118,33.3650
17.7639,33.3970
17.7075,33.4082
Z" /> 
</g>
<g style="fill:#D864FF; fill-opacity:0.4000; stroke:none;">
<circle cx="4.7350" cy="28.4982" r="0.8500" /> 
</g>
<g style="fill:#D864FF; fill-opacity:0.4000; stroke:none;">
<circle cx="4.7350" cy="31.0382" r="0.8500" /> 
<circle cx="4.7350" cy="33.5782" r="0.8500" /> 
<circle cx="4.7350" cy="36.1182" r="0.8500" /> 
<circle cx="4.5500" cy="13.4982" r="0.8500" /> 
</g>
<g style="fill:#D864FF; fill-opacity:0.4000; stroke:none;">
<circle cx="4.5500" cy="16.0382" r="0.8500" /> 
<circle cx="4.5500" cy="18.5783" r="0.8500" /> 
<circle cx="4.5500" cy="21.1182" r="0.8500" /> 
</g>
<g style="fill:none; 
stroke:#F2EDA1; stroke-width:0.1500; stroke-opacity:1; 
stroke-linecap:round; stroke-linejoin:round;">
<g transform="rotate(-90.000000 7.0500 55.4982)">
<text x="7.0500" y="55.9982"
textLength="4.5357" font-size="1.3333" lengthAdjust="spacingAndGlyphs"
text-anchor="middle" opacity="0">REF**</text>
</g>
<g class="stroked-text"><desc>REF**</desc>
<path d="M7.5048 56.8316
L7.0286 57.1649
" />
<path d="M7.5048 57.4030
L6.5048 57.4030
" />
<path d="M6.5048 57.4030
L6.5048 57.0221
" />
<path d="M6.5048 57.0221
L6.5524 56.9268
" />
<path d="M6.5524 56.9268
L6.6001 56.8792
" />
<path d="M6.6001 56.8792
L6.6953 56.8316
" />
<path d="M6.6953 56.8316
L6.8382 56.8316
" />
<path d="M6.8382 56.8316
L6.9334 56.8792
" />
<path d="M6.9334 56.8792
L6.9810 56.9268
" />
<path d="M6.9810 56.9268
L7.0286 57.0221
" />
<path d="M7.0286 57.0221
L7.0286 57.4030
" />
<path d="M6.9810 56.4030
L6.9810 56.0697
" />
<path d="M7.5048 55.9268
L7.5048 56.4030
" />
<path d="M7.5048 56.4030
L6.5048 56.4030
" />
<path d="M6.5048 56.4030
L6.5048 55.9268
" />
<path d="M6.9810 55.1649
L6.9810 55.4982
" />
<path d="M7.5048 55.4982
L6.5048 55.4982
" />
<path d="M6.5048 55.4982
L6.5048 55.0221
" />
<path d="M6.5048 54.4982
L6.7429 54.4982
" />
<path d="M6.6477 54.7363
L6.7429 54.4982
" />
<path d="M6.7429 54.4982
L6.6477 54.2602
" />
<path d="M6.9334 54.6411
L6.7429 54.4982
" />
<path d="M6.7429 54.4982
L6.9334 54.3554
" />
<path d="M6.5048 53.7363
L6.7429 53.7363
" />
<path d="M6.6477 53.9744
L6.7429 53.7363
" />
<path d="M6.7429 53.7363
L6.6477 53.4982
" />
<path d="M6.9334 53.8792
L6.7429 53.7363
" />
<path d="M6.7429 53.7363
L6.9334 53.5935
" />
</g></g>
<g style="fill:none; 
stroke:#F2EDA1; stroke-width:0.1000; stroke-opacity:1; 
stroke-linecap:round; stroke-linejoin:round;">
<circle cx="14.3350" cy="31.8882" r="0.0500" /> 
<circle cx="20.3350" cy="31.8882" r="0.0500" /> 
<circle cx="7.2500" cy="32.5082" r="0.0500" /> 
<circle cx="7.2500" cy="31.8882" r="0.0500" /> 
<circle cx="9.7400" cy="34.9982" r="0.0500" /> 
<circle cx="24.2250" cy="32.1983" r="0.0500" /> 
<circle cx="20.0250" cy="34.9982" r="0.0500" /> 
<circle cx="14.3350" cy="34.6882" r="0.0500" /> 
<circle cx="10.0500" cy="29.7082" r="0.0500" /> 
<circle cx="14.0250" cy="29.3982" r="0.0500" /> 
<circle cx="20.0250" cy="29.3982" r="0.0500" /> 
<circle cx="24.2250" cy="34.9982" r="0.0500" /> 
<circle cx="20.3350" cy="34.6882" r="0.0500" /> 
<circle cx="24.5350" cy="31.8882" r="0.0500" /> 
<circle cx="7.5600" cy="32.1983" r="0.0500" /> 
<circle cx="14.0250" cy="34.9982" r="0.0500" /> 
<circle cx="14.0250" cy="32.1983" r="0.0500" /> 
<circle cx="17.5350" cy="31.8882" r="0.0500" /> 
<circle cx="20.0250" cy="32.1983" r="0.0500" /> 
<circle cx="15.9350" cy="32.4883" r="0.0500" /> 
<circle cx="24.5350" cy="34.6882" r="0.0500" /> 
<circle cx="21.7350" cy="31.8882" r="0.0500" /> 
<circle cx="11.5350" cy="34.6882" r="0.0500" /> 
<circle cx="21.7350" cy="34.6882" r="0.0500" /> 
<circle cx="15.9350" cy="34.4883" r="0.0500" /> 
<circle cx="10.0500" cy="34.6882" r="0.0500" /> 
</g>
<g style="fill:none; 
stroke:#F2EDA1; stroke-width:0.1500; stroke-opacity:1; 
stroke-linecap:round; stroke-linejoin:round;">
<path d="M8.0500 42.4982
L8.0500 57.4982
" />
<path d="M8.0500 57.4982
L23.0500 57.4982
" />
</g>
<g style="fill:none; 
stroke:#F2EDA1; stroke-width:0.1200; stroke-opacity:1; 
stroke-linecap:round; stroke-linejoin:round;">
<path d="M10.4700 54.1982
L10.4700 56.7982
" />
<path d="M10.4700 56.7982
L20.8840 56.7982
" />
<path d="M20.8840 54.1982
L10.4700 54.1982
" />
<path d="M20.8840 54.1982
L20.8840 56.7982
" />
</g>
<g style="fill:none; 
stroke:#F2EDA1; stroke-width:0.1500; stroke-opacity:1; 
stroke-linecap:round; stroke-linejoin:round;">
<path d="M23.0500 42.4982
L8.0500 42.4982
" />
<path d="M23.0500 57.4982
L23.0500 42.4982
" />
</g>
<g style="fill:none; 
stroke:#F2EDA1; stroke-width:0.1000; stroke-opacity:1; 
stroke-linecap:round; stroke-linejoin:round;">
<circle cx="11.5350" cy="31.8882" r="0.0500" /> 
<circle cx="9.7400" cy="29.3982" r="0.0500" /> 
<circle cx="24.2250" cy="29.3982" r="0.0500" /> 
<circle cx="17.5350" cy="34.6882" r="0.0500" /> 
</g>
<g style="fill:none; 
stroke:#FFFFFF; stroke-width:0.5000; stroke-opacity:1; 
stroke-linecap:round; stroke-linejoin:round;">
<path d="M13.9500 18.5983
L13.9500 17.5983
" />
<path d="M9.5500 18.5983
L9.5500 17.5983
" />
<path d="M8.6500 19.4982
L7.6500 19.4982
" />
<path d="M11.1500 18.5983
L11.1500 17.5983
" />
<path d="M17.1500 18.5983
L17.1500 17.5983
" />
<path d="M19.0500 13.8982
L18.0500 13.8982
" />
<path d="M23.2500 16.6982
L22.2500 16.6982
" />
<path d="M21.3500 15.7982
L21.3500 14.7982
" />
<path d="M19.0500 19.4982
L18.0500 19.4982
" />
<path d="M6.7500 18.5983
L6.7500 17.5983
" />
<path d="M6.7500 15.7982
L6.7500 14.7982
" />
<path d="M23.2500 13.8982
L22.2500 13.8982
" />
<path d="M24.1500 15.7982
L24.1500 14.7982
" />
<path d="M24.1500 18.5983
L24.1500 17.5983
" />
<path d="M19.9500 18.5983
L19.9500 17.5983
" />
<path d="M15.5500 18.2982
L15.5500 17.2982
" />
<path d="M19.9500 15.7982
L19.9500 14.7982
" />
<path d="M21.3500 18.5983
L21.3500 17.5983
" />
<path d="M17.1500 15.7982
L17.1500 14.7982
" />
<path d="M23.2500 19.4982
L22.2500 19.4982
" />
<path d="M13.0500 19.4982
L12.0500 19.4982
" />
<path d="M19.0500 16.6982
L18.0500 16.6982
" />
<path d="M9.5500 15.7982
L9.5500 14.7982
" />
<path d="M11.1500 15.7982
L11.1500 14.7982
" />
<path d="M8.6500 16.6982
L7.6500 16.6982
" />
<path d="M13.0500 16.6982
L12.0500 16.6982
" />
<path d="M8.6500 13.8982
L7.6500 13.8982
" />
<path d="M15.5500 15.9982
L15.5500 14.9982
" />
</g>
<g style="fill:#FFFFFF; fill-opacity:1.0000; stroke:none;">
<circle cx="11.7400" cy="55.7522" r="0.5000" /> 
</g>
<g style="fill:#FFFFFF; fill-opacity:1.0000; stroke:none;">
<circle cx="14.2800" cy="55.2522" r="0.5000" /> 
</g>
<g style="fill:#FFFFFF; fill-opacity:1.0000; stroke:none;">
<circle cx="16.8200" cy="55.7522" r="0.5000" /> 
</g>
<g style="fill:#FFFFFF; fill-opacity:1.0000; stroke:none;">
<circle cx="19.3600" cy="55.2522" r="0.5000" /> 
</g>
<g style="fill:none; 
stroke:#FFFFFF; stroke-width:0.5000; stroke-opacity:1; 
stroke-linecap:round; stroke-linejoin:round;">
<path d="M13.0500 13.8982
L12.0500 13.8982
" />
<path d="M13.9500 15.7982
L13.9500 14.7982
" />
</g>
<g style="fill:#FFFFFF; fill-opacity:1.0000; stroke:none;">
<circle cx="4.7350" cy="28.4982" r="0.5000" /> 
</g>
<g style="fill:#FFFFFF; fill-opacity:1.0000; stroke:none;">
<circle cx="4.7350" cy="31.0382" r="0.5000" /> 
</g>
<g style="fill:#FFFFFF; fill-opacity:1.0000; stroke:none;">
<circle cx="4.7350" cy="33.5782" r="0.5000" /> 
</g>
<g style="fill:#FFFFFF; fill-opacity:1.0000; stroke:none;">
<circle cx="4.7350" cy="36.1182" r="0.5000" /> 
</g>
<g style="fill:#FFFFFF; fill-opacity:1.0000; stroke:none;">
<circle cx="4.5500" cy="13.4982" r="0.5000" /> 
</g>
<g style="fill:#FFFFFF; fill-opacity:1.0000; stroke:none;">
<circle cx="4.5500" cy="16.0382" r="0.5000" /> 
</g>
<g style="fill:#FFFFFF; fill-opacity:1.0000; stroke:none;">
<circle cx="4.5500" cy="18.5783" r="0.5000" /> 
</g>
<g style="fill:#FFFFFF; fill-opacity:1.0000; stroke:none;">
<circle cx="4.5500" cy="21.1182" r="0.5000" /> 
</g>
<g style="fill:none; 
stroke:#D0D2CD; stroke-width:0.1000; stroke-opacity:1; 
stroke-linecap:round; stroke-linejoin:round;">
<path d="M15.5500 37.7982
L27.5500 37.7982
" />
<path d="M15.7571 22.5911
L27.7571 22.5911
" />
<path d="M31.2571 11.5911
L31.2571 17.0911
" />
<path d="M31.0500 32.2982
L31.0500 37.7982
" />
<path d="M3.5500 37.7982 A0.5000 0.5000 0.0 0 0 3.0500 38.2982" />
<path d="M3.5500 37.7982
L15.5500 37.7982
" />
<path d="M1.0500 38.7982
L2.5500 38.7982
" />
<path d="M0.2571 17.0911
L0.2571 11.5911
" />
<path d="M15.5500 26.7982
L3.5500 26.7982
" />
<path d="M3.2571 11.0911 A0.5000 0.5000 0.0 0 0 2.7571 10.5911" />
<path d="M28.7571 23.5911
L30.2571 23.5911
" />
<path d="M3.0500 26.2982 A0.5000 0.5000 0.0 0 0 3.5500 26.7982" />
<path d="M0.0500 37.7982 A1.0000 1.0000 0.0 0 0 1.0500 38.7982" />
<path d="M3.7571 22.5911
L15.7571 22.5911
" />
<path d="M28.5500 25.7982 A0.5000 0.5000 0.0 0 0 28.0500 26.2982" />
<path d="M30.0500 25.7982
L28.5500 25.7982
" />
<path d="M28.0500 38.2982 A0.5000 0.5000 0.0 0 0 27.5500 37.7982" />
<path d="M31.2571 17.0911
L31.2571 22.5911
" />
<path d="M1.0500 25.7982 A1.0000 1.0000 0.0 0 0 0.0500 26.7982" />
<path d="M0.2571 22.5911 A1.0000 1.0000 0.0 0 0 1.2571 23.5911" />
<path d="M1.2571 23.5911
L2.7571 23.5911
" />
<path d="M28.2571 23.0911 A0.5000 0.5000 0.0 0 0 28.7571 23.5911" />
<path d="M15.7571 11.5911
L3.7571 11.5911
" />
<path d="M30.2571 23.5912 A1.0000 1.0000 0.0 0 0 31.2571 22.5911" />
<path d="M2.7571 23.5912 A0.5000 0.5000 0.0 0 0 3.2571 23.0911" />
<path d="M30.2571 10.5911
L28.7571 10.5911
" />
<path d="M27.7571 11.5911
L15.7571 11.5911
" />
<path d="M31.2571 11.5911 A1.0000 1.0000 0.0 0 0 30.2571 10.5911" />
<path d="M1.2571 10.5912 A1.0000 1.0000 0.0 0 0 0.2571 11.5911" />
<path d="M3.7571 22.5912 A0.5000 0.5000 0.0 0 0 3.2571 23.0911" />
<path d="M28.5500 38.7982
L30.0500 38.7982
" />
<path d="M31.0500 26.7982 A1.0000 1.0000 0.0 0 0 30.0500 25.7982" />
<path d="M0.2571 22.5911
L0.2571 17.0911
" />
<path d="M2.7571 10.5911
L1.2571 10.5911
" />
<path d="M31.0500 26.7982
L31.0500 32.2982
" />
<path d="M28.0500 38.2982 A0.5000 0.5000 0.0 0 0 28.5500 38.7982" />
<path d="M30.0500 38.7982 A1.0000 1.0000 0.0 0 0 31.0500 37.7982" />
<path d="M2.5500 25.7982
L1.0500 25.7982
" />
<path d="M0.0500 37.7982
L0.0500 32.2982
" />
<path d="M27.5500 26.7982
L15.5500 26.7982
" />
<path d="M28.2571 23.0911 A0.5000 0.5000 0.0 0 0 27.7571 22.5911" />
<path d="M27.5500 26.7982 A0.5000 0.5000 0.0 0 0 28.0500 26.2982" />
<path d="M2.5500 38.7982 A0.5000 0.5000 0.0 0 0 3.0500 38.2982" />
<path d="M3.2571 11.0911 A0.5000 0.5000 0.0 0 0 3.7571 11.5911" />
<path d="M27.7571 11.5912 A0.5000 0.5000 0.0 0 0 28.2571 11.0911" />
<path d="M3.0500 26.2982 A0.5000 0.5000 0.0 0 0 2.5500 25.7982" />
<path d="M0.0500 32.2982
L0.0500 26.7982
" />
<path d="M28.7571 10.5912 A0.5000 0.5000 0.0 0 0 28.2571 11.0911" />
<path style="fill:none; 
stroke:#D0D2CD; stroke-width:0.0500; stroke-opacity:1; 
stroke-linecap:round; stroke-linejoin:round;fill:none"
d="M 8.0500,42.4982
23.0500,42.4982
23.0500,57.4982
8.0500,57.4982
Z" /> 
</g> 
</svg>
